STARTFONT 2.1
FONT -FontForge-Source Serif Pro-Bold-R-Normal--18-170-75-75-P-88-ISO10646-1
SIZE 17 75 75
FONTBOUNDINGBOX 24 23 -3 -6
COMMENT "Generated by fontforge, http://fontforge.sourceforge.net"
COMMENT "Copyright 2014 Adobe Systems Incorporated. All Rights Reserved."
STARTPROPERTIES 41
FOUNDRY "FontForge"
FAMILY_NAME "Source Serif Pro"
WEIGHT_NAME "Bold"
SLANT "R"
SETWIDTH_NAME "Normal"
ADD_STYLE_NAME ""
PIXEL_SIZE 18
POINT_SIZE 170
RESOLUTION_X 75
RESOLUTION_Y 75
SPACING "P"
AVERAGE_WIDTH 88
CHARSET_REGISTRY "ISO10646"
CHARSET_ENCODING "1"
FONTNAME_REGISTRY ""
CHARSET_COLLECTIONS "ISO8859-2 ISO8859-9 ISO8859-4 ISO10646-1"
FONT_NAME "SourceSerifPro-Bold"
FACE_NAME "Source Serif Pro Bold"
COPYRIGHT "Copyright 2014 Adobe Systems Incorporated. All Rights Reserved."
FONT_VERSION "1.014;PS Version 1.0;hotconv 1.0.73;makeotf.lib2.5.5900"
FONT_ASCENT 13
FONT_DESCENT 5
UNDERLINE_POSITION -2
UNDERLINE_THICKNESS 1
X_HEIGHT 8
CAP_HEIGHT 11
DEFAULT_CHAR 1
RAW_ASCENT 730
RAW_DESCENT 270
NORM_SPACE 4
RELATIVE_WEIGHT 70
RELATIVE_SETWIDTH 50
SUPERSCRIPT_X 0
SUPERSCRIPT_Y 6
SUPERSCRIPT_SIZE 10
SUBSCRIPT_X 0
SUBSCRIPT_Y 1
SUBSCRIPT_SIZE 10
FIGURE_WIDTH 10
AVG_LOWERCASE_WIDTH 94
AVG_UPPERCASE_WIDTH 117
ENDPROPERTIES
CHARS 547
STARTCHAR NULL.dup1
ENCODING 0
SWIDTH 0 0
DWIDTH 0 0
BBX 1 1 0 0
BITMAP
00
ENDCHAR
STARTCHAR CR
ENCODING 13
SWIDTH 220 0
DWIDTH 4 0
BBX 1 1 0 0
BITMAP
00
ENDCHAR
STARTCHAR space
ENCODING 32
SWIDTH 220 0
DWIDTH 4 0
BBX 1 1 0 0
BITMAP
00
ENDCHAR
STARTCHAR exclam
ENCODING 33
SWIDTH 328 0
DWIDTH 6 0
BBX 3 12 1 0
BITMAP
60
E0
60
60
60
60
40
00
00
60
E0
60
ENDCHAR
STARTCHAR quotedbl
ENCODING 34
SWIDTH 426 0
DWIDTH 8 0
BBX 6 6 1 7
BITMAP
CC
CC
CC
CC
CC
88
ENDCHAR
STARTCHAR numbersign
ENCODING 35
SWIDTH 540 0
DWIDTH 10 0
BBX 9 12 0 0
BITMAP
1900
1100
1300
7F80
3200
3200
3200
2200
FF80
2600
2600
6400
ENDCHAR
STARTCHAR dollar
ENCODING 36
SWIDTH 528 0
DWIDTH 10 0
BBX 8 16 1 -2
BITMAP
10
10
3C
D6
D6
D0
F0
7C
3E
17
13
D3
D6
7C
10
10
ENDCHAR
STARTCHAR percent
ENCODING 37
SWIDTH 880 0
DWIDTH 16 0
BBX 14 12 1 0
BITMAP
7010
D820
9840
98C0
98B8
996C
DB4C
724C
044C
084C
186C
1038
ENDCHAR
STARTCHAR ampersand
ENCODING 38
SWIDTH 748 0
DWIDTH 13 0
BBX 12 12 1 0
BITMAP
3C00
6600
6200
66F0
3460
3840
7C40
CE80
C700
C380
E380
7CE0
ENDCHAR
STARTCHAR quotesingle
ENCODING 39
SWIDTH 218 0
DWIDTH 4 0
BBX 2 6 1 7
BITMAP
C0
C0
C0
C0
C0
80
ENDCHAR
STARTCHAR parenleft
ENCODING 40
SWIDTH 365 0
DWIDTH 7 0
BBX 5 16 1 -3
BITMAP
08
10
30
60
60
E0
C0
C0
C0
C0
E0
60
60
30
10
18
ENDCHAR
STARTCHAR parenright
ENCODING 41
SWIDTH 365 0
DWIDTH 7 0
BBX 4 16 1 -3
BITMAP
80
C0
60
60
30
30
30
30
30
30
30
30
60
60
C0
80
ENDCHAR
STARTCHAR asterisk
ENCODING 42
SWIDTH 434 0
DWIDTH 8 0
BBX 7 6 0 7
BITMAP
18
18
F6
18
3C
64
ENDCHAR
STARTCHAR plus
ENCODING 43
SWIDTH 530 0
DWIDTH 10 0
BBX 8 9 1 1
BITMAP
18
18
18
18
FF
18
18
18
18
ENDCHAR
STARTCHAR comma
ENCODING 44
SWIDTH 300 0
DWIDTH 5 0
BBX 4 6 0 -3
BITMAP
30
70
30
10
20
C0
ENDCHAR
STARTCHAR hyphen
ENCODING 45
SWIDTH 330 0
DWIDTH 6 0
BBX 4 1 1 4
BITMAP
F0
ENDCHAR
STARTCHAR period
ENCODING 46
SWIDTH 300 0
DWIDTH 5 0
BBX 3 3 1 0
BITMAP
60
E0
60
ENDCHAR
STARTCHAR slash
ENCODING 47
SWIDTH 368 0
DWIDTH 7 0
BBX 7 16 0 -3
BITMAP
06
0C
0C
08
08
18
18
10
30
30
20
60
60
40
40
C0
ENDCHAR
STARTCHAR zero
ENCODING 48
SWIDTH 528 0
DWIDTH 10 0
BBX 8 12 1 0
BITMAP
3C
66
C6
C7
C7
C7
C7
C7
C7
C6
66
3C
ENDCHAR
STARTCHAR one
ENCODING 49
SWIDTH 528 0
DWIDTH 10 0
BBX 7 12 1 0
BITMAP
18
78
18
18
18
18
18
18
18
18
18
FE
ENDCHAR
STARTCHAR two
ENCODING 50
SWIDTH 528 0
DWIDTH 10 0
BBX 8 12 1 0
BITMAP
7C
CE
C6
C6
06
0C
08
10
20
40
FF
FF
ENDCHAR
STARTCHAR three
ENCODING 51
SWIDTH 528 0
DWIDTH 10 0
BBX 8 12 1 0
BITMAP
3C
4E
C6
86
0E
38
06
07
87
C7
CE
7C
ENDCHAR
STARTCHAR four
ENCODING 52
SWIDTH 528 0
DWIDTH 10 0
BBX 9 12 0 0
BITMAP
0600
0600
0E00
1600
3600
2600
4600
FF80
FF80
0600
0600
0600
ENDCHAR
STARTCHAR five
ENCODING 53
SWIDTH 528 0
DWIDTH 10 0
BBX 8 12 1 0
BITMAP
7E
7E
40
40
7C
06
07
07
87
C7
CE
7C
ENDCHAR
STARTCHAR six
ENCODING 54
SWIDTH 528 0
DWIDTH 10 0
BBX 8 12 1 0
BITMAP
0E
38
70
60
C0
FE
C7
C7
C3
C7
66
3C
ENDCHAR
STARTCHAR seven
ENCODING 55
SWIDTH 528 0
DWIDTH 10 0
BBX 8 12 1 0
BITMAP
FF
FF
02
06
04
0C
0C
18
18
38
30
70
ENDCHAR
STARTCHAR eight
ENCODING 56
SWIDTH 528 0
DWIDTH 10 0
BBX 8 12 1 0
BITMAP
3C
66
C6
C6
74
7C
7E
C7
C3
C3
C6
7C
ENDCHAR
STARTCHAR nine
ENCODING 57
SWIDTH 528 0
DWIDTH 10 0
BBX 8 12 1 0
BITMAP
7C
E6
C6
C7
C7
E7
7F
06
06
0C
38
60
ENDCHAR
STARTCHAR colon
ENCODING 58
SWIDTH 300 0
DWIDTH 5 0
BBX 3 9 1 0
BITMAP
60
E0
60
00
00
00
60
E0
60
ENDCHAR
STARTCHAR semicolon
ENCODING 59
SWIDTH 300 0
DWIDTH 5 0
BBX 4 12 0 -3
BITMAP
30
70
30
00
00
00
30
70
30
10
20
C0
ENDCHAR
STARTCHAR less
ENCODING 60
SWIDTH 530 0
DWIDTH 10 0
BBX 7 9 1 1
BITMAP
02
0E
38
E0
C0
E0
38
0E
02
ENDCHAR
STARTCHAR equal
ENCODING 61
SWIDTH 530 0
DWIDTH 10 0
BBX 8 5 1 3
BITMAP
FF
00
00
00
FF
ENDCHAR
STARTCHAR greater
ENCODING 62
SWIDTH 530 0
DWIDTH 10 0
BBX 8 9 1 1
BITMAP
40
F0
38
0E
03
0E
38
F0
40
ENDCHAR
STARTCHAR question
ENCODING 63
SWIDTH 471 0
DWIDTH 8 0
BBX 6 12 1 0
BITMAP
F0
F8
04
0C
3C
7C
70
40
00
60
E0
60
ENDCHAR
STARTCHAR at
ENCODING 64
SWIDTH 929 0
DWIDTH 17 0
BBX 15 15 1 -3
BITMAP
07E0
1C18
300C
63E6
4666
CC66
8C66
8CE6
8CC4
8CCC
CF78
C000
6000
3040
0FE0
ENDCHAR
STARTCHAR A
ENCODING 65
SWIDTH 673 0
DWIDTH 12 0
BBX 12 12 0 0
BITMAP
0200
0600
0700
0B00
0B00
0B80
1180
1FC0
21C0
20C0
20E0
F1F0
ENDCHAR
STARTCHAR B
ENCODING 66
SWIDTH 636 0
DWIDTH 11 0
BBX 10 12 1 0
BITMAP
FF00
7380
7180
7180
7380
7E00
7180
71C0
71C0
71C0
7180
FF00
ENDCHAR
STARTCHAR C
ENCODING 67
SWIDTH 622 0
DWIDTH 11 0
BBX 10 12 1 0
BITMAP
1F80
7080
6080
E080
C000
C000
C000
C000
E0C0
E0C0
70C0
1F80
ENDCHAR
STARTCHAR D
ENCODING 68
SWIDTH 692 0
DWIDTH 12 0
BBX 11 12 1 0
BITMAP
FF00
7380
71C0
70E0
70E0
70E0
70E0
70E0
70C0
71C0
7380
FE00
ENDCHAR
STARTCHAR E
ENCODING 69
SWIDTH 598 0
DWIDTH 11 0
BBX 9 12 1 0
BITMAP
FF80
7180
7180
7200
7200
7E00
7200
7200
7000
7080
7080
FF80
ENDCHAR
STARTCHAR F
ENCODING 70
SWIDTH 583 0
DWIDTH 11 0
BBX 9 12 1 0
BITMAP
FF80
7180
7180
7200
7200
7E00
7200
7200
7000
7000
7000
F800
ENDCHAR
STARTCHAR G
ENCODING 71
SWIDTH 674 0
DWIDTH 12 0
BBX 11 12 1 0
BITMAP
1F80
70C0
60C0
E000
C000
C000
C3E0
C1C0
E1C0
61C0
71C0
1F00
ENDCHAR
STARTCHAR H
ENCODING 72
SWIDTH 795 0
DWIDTH 14 0
BBX 13 12 1 0
BITMAP
F9F8
7060
7060
7060
7060
7FE0
7060
7060
7060
7060
7060
F9F8
ENDCHAR
STARTCHAR I
ENCODING 73
SWIDTH 376 0
DWIDTH 7 0
BBX 5 12 1 0
BITMAP
F8
70
70
70
70
70
70
70
70
70
70
F8
ENDCHAR
STARTCHAR J
ENCODING 74
SWIDTH 390 0
DWIDTH 7 0
BBX 7 15 -1 -3
BITMAP
3E
1C
1C
1C
1C
1C
1C
1C
1C
1C
1C
1C
18
D8
F0
ENDCHAR
STARTCHAR K
ENCODING 75
SWIDTH 701 0
DWIDTH 13 0
BBX 12 12 1 0
BITMAP
F9E0
7180
7100
7200
7600
7E00
7F00
7300
7380
7180
71C0
FBF0
ENDCHAR
STARTCHAR L
ENCODING 76
SWIDTH 580 0
DWIDTH 10 0
BBX 9 12 1 0
BITMAP
F800
7000
7000
7000
7000
7000
7000
7000
7080
7180
7180
FF80
ENDCHAR
STARTCHAR M
ENCODING 77
SWIDTH 915 0
DWIDTH 16 0
BBX 16 12 0 0
BITMAP
F00F
381C
381C
3C1C
2C2C
2E2C
264C
274C
278C
238C
230C
F93F
ENDCHAR
STARTCHAR N
ENCODING 78
SWIDTH 761 0
DWIDTH 14 0
BBX 13 12 0 0
BITMAP
78F8
3810
3C10
2E10
2710
2790
2390
21D0
20F0
2070
2070
F830
ENDCHAR
STARTCHAR O
ENCODING 79
SWIDTH 708 0
DWIDTH 13 0
BBX 11 12 1 0
BITMAP
1F00
7180
60C0
E0E0
C0E0
C0E0
C0E0
C0E0
E0E0
60C0
7180
1F00
ENDCHAR
STARTCHAR P
ENCODING 80
SWIDTH 604 0
DWIDTH 11 0
BBX 10 12 1 0
BITMAP
FF00
7380
7180
71C0
7180
7380
7E00
7000
7000
7000
7000
F800
ENDCHAR
STARTCHAR Q
ENCODING 81
SWIDTH 708 0
DWIDTH 13 0
BBX 11 16 1 -4
BITMAP
1F00
7180
60C0
E0E0
C0E0
C0E0
C0E0
C0E0
E0E0
E0C0
7180
1F00
0C00
0E00
0600
03C0
ENDCHAR
STARTCHAR R
ENCODING 82
SWIDTH 671 0
DWIDTH 12 0
BBX 11 12 1 0
BITMAP
FF00
7380
7180
7180
7180
7380
7E00
7300
7380
7380
7180
F9E0
ENDCHAR
STARTCHAR S
ENCODING 83
SWIDTH 534 0
DWIDTH 10 0
BBX 8 12 1 0
BITMAP
3E
C6
C2
C0
F0
FC
3E
0F
83
83
C6
7C
ENDCHAR
STARTCHAR T
ENCODING 84
SWIDTH 644 0
DWIDTH 12 0
BBX 11 12 0 0
BITMAP
FFE0
CE20
CE20
0E00
0E00
0E00
0E00
0E00
0E00
0E00
0E00
1F80
ENDCHAR
STARTCHAR U
ENCODING 85
SWIDTH 750 0
DWIDTH 14 0
BBX 12 12 1 0
BITMAP
F8F0
7060
7060
7060
7060
7060
7060
7040
7040
7040
3880
1F00
ENDCHAR
STARTCHAR V
ENCODING 86
SWIDTH 650 0
DWIDTH 12 0
BBX 12 12 0 0
BITMAP
F8F0
7040
3040
3880
1880
1C80
1D00
0D00
0F00
0E00
0600
0600
ENDCHAR
STARTCHAR W
ENCODING 87
SWIDTH 987 0
DWIDTH 18 0
BBX 18 12 0 0
BITMAP
F9F3C0
70E100
30E100
38F200
397200
193200
1F3A00
1E3C00
0E1C00
0C1C00
0C1800
040800
ENDCHAR
STARTCHAR X
ENCODING 88
SWIDTH 652 0
DWIDTH 12 0
BBX 11 12 0 0
BITMAP
7DE0
3880
1C80
1D00
0E00
0E00
0700
0F00
1380
1380
21C0
F3E0
ENDCHAR
STARTCHAR Y
ENCODING 89
SWIDTH 606 0
DWIDTH 11 0
BBX 11 12 0 0
BITMAP
FDE0
7080
3880
3900
1D00
1E00
0E00
0E00
0E00
0E00
0E00
3F00
ENDCHAR
STARTCHAR Z
ENCODING 90
SWIDTH 569 0
DWIDTH 10 0
BBX 10 12 0 0
BITMAP
7FC0
4380
4300
0700
0E00
0E00
1C00
1800
3800
70C0
70C0
FFC0
ENDCHAR
STARTCHAR bracketleft
ENCODING 91
SWIDTH 339 0
DWIDTH 6 0
BBX 4 16 2 -3
BITMAP
F0
C0
C0
C0
C0
C0
C0
C0
C0
C0
C0
C0
C0
C0
C0
F0
ENDCHAR
STARTCHAR backslash
ENCODING 92
SWIDTH 368 0
DWIDTH 7 0
BBX 7 16 0 -3
BITMAP
C0
40
40
60
60
20
30
30
10
18
18
08
08
0C
0C
06
ENDCHAR
STARTCHAR bracketright
ENCODING 93
SWIDTH 339 0
DWIDTH 6 0
BBX 4 16 0 -3
BITMAP
F0
30
30
30
30
30
30
30
30
30
30
30
30
30
30
F0
ENDCHAR
STARTCHAR asciicircum
ENCODING 94
SWIDTH 530 0
DWIDTH 10 0
BBX 7 6 1 3
BITMAP
18
38
2C
66
C6
42
ENDCHAR
STARTCHAR underscore
ENCODING 95
SWIDTH 530 0
DWIDTH 10 0
BBX 8 1 1 -1
BITMAP
FF
ENDCHAR
STARTCHAR grave
ENCODING 96
SWIDTH 400 0
DWIDTH 7 0
BBX 4 4 2 10
BITMAP
C0
E0
60
10
ENDCHAR
STARTCHAR a
ENCODING 97
SWIDTH 534 0
DWIDTH 10 0
BBX 9 9 1 0
BITMAP
7C00
EE00
C600
0600
1E00
6600
C600
C600
FF80
ENDCHAR
STARTCHAR b
ENCODING 98
SWIDTH 599 0
DWIDTH 11 0
BBX 10 13 0 0
BITMAP
3000
F000
3000
3000
3780
39C0
31C0
30C0
30C0
30C0
31C0
3980
7700
ENDCHAR
STARTCHAR c
ENCODING 99
SWIDTH 510 0
DWIDTH 9 0
BBX 8 9 1 0
BITMAP
3C
66
E7
C2
C0
C0
E0
63
3C
ENDCHAR
STARTCHAR d
ENCODING 100
SWIDTH 592 0
DWIDTH 11 0
BBX 9 13 1 0
BITMAP
0300
0F00
0300
0300
3B00
6700
E300
C300
C300
C300
C300
E700
7B80
ENDCHAR
STARTCHAR e
ENCODING 101
SWIDTH 527 0
DWIDTH 9 0
BBX 8 9 1 0
BITMAP
3C
66
E3
C7
FF
C0
E0
63
3C
ENDCHAR
STARTCHAR f
ENCODING 102
SWIDTH 353 0
DWIDTH 6 0
BBX 7 13 1 0
BITMAP
1E
36
60
60
F8
60
60
60
60
60
60
60
F8
ENDCHAR
STARTCHAR g
ENCODING 103
SWIDTH 544 0
DWIDTH 10 0
BBX 8 13 1 -4
BITMAP
7D
E7
C6
C6
E6
7C
C0
FE
7F
C3
C3
C3
FC
ENDCHAR
STARTCHAR h
ENCODING 104
SWIDTH 619 0
DWIDTH 11 0
BBX 11 13 0 0
BITMAP
3000
F000
3000
3000
3780
3980
31C0
31C0
31C0
31C0
31C0
31C0
7BE0
ENDCHAR
STARTCHAR i
ENCODING 105
SWIDTH 309 0
DWIDTH 6 0
BBX 4 13 1 0
BITMAP
60
E0
00
00
20
E0
60
60
60
60
60
60
F0
ENDCHAR
STARTCHAR j
ENCODING 106
SWIDTH 309 0
DWIDTH 6 0
BBX 6 17 -2 -4
BITMAP
0C
1C
00
00
04
1C
0C
0C
0C
0C
0C
0C
0C
0C
0C
E8
70
ENDCHAR
STARTCHAR k
ENCODING 107
SWIDTH 590 0
DWIDTH 11 0
BBX 11 13 0 0
BITMAP
3000
F000
3000
3000
33C0
3100
3200
3600
3F00
3700
3380
3180
79E0
ENDCHAR
STARTCHAR l
ENCODING 108
SWIDTH 309 0
DWIDTH 6 0
BBX 5 13 0 0
BITMAP
30
F0
30
30
30
30
30
30
30
30
30
30
78
ENDCHAR
STARTCHAR m
ENCODING 109
SWIDTH 917 0
DWIDTH 17 0
BBX 15 9 1 0
BITMAP
6F38
F35C
638C
638C
638C
638C
638C
638C
F7DE
ENDCHAR
STARTCHAR n
ENCODING 110
SWIDTH 624 0
DWIDTH 11 0
BBX 10 9 1 0
BITMAP
6F00
F380
6380
6380
6380
6380
6380
6380
F7C0
ENDCHAR
STARTCHAR o
ENCODING 111
SWIDTH 566 0
DWIDTH 10 0
BBX 9 9 1 0
BITMAP
3C00
6700
C300
C380
C380
C380
C300
6700
3C00
ENDCHAR
STARTCHAR p
ENCODING 112
SWIDTH 609 0
DWIDTH 11 0
BBX 9 13 1 -4
BITMAP
6F00
F380
6380
6180
6180
6180
6380
7300
6E00
6000
6000
6000
F800
ENDCHAR
STARTCHAR q
ENCODING 113
SWIDTH 585 0
DWIDTH 11 0
BBX 9 13 1 -4
BITMAP
3900
6700
E300
C300
C300
C300
C300
E700
7B00
0300
0300
0300
0F80
ENDCHAR
STARTCHAR r
ENCODING 114
SWIDTH 457 0
DWIDTH 8 0
BBX 7 9 1 0
BITMAP
6E
EE
76
60
60
60
60
60
F8
ENDCHAR
STARTCHAR s
ENCODING 115
SWIDTH 464 0
DWIDTH 8 0
BBX 7 9 1 0
BITMAP
7C
C4
C4
F0
7C
1E
86
8C
78
ENDCHAR
STARTCHAR t
ENCODING 116
SWIDTH 356 0
DWIDTH 6 0
BBX 6 11 0 0
BITMAP
30
30
FC
70
70
70
70
70
70
30
3C
ENDCHAR
STARTCHAR u
ENCODING 117
SWIDTH 602 0
DWIDTH 11 0
BBX 9 9 1 0
BITMAP
E700
6300
6300
E300
E300
E300
E300
6700
7B80
ENDCHAR
STARTCHAR v
ENCODING 118
SWIDTH 535 0
DWIDTH 10 0
BBX 9 9 0 0
BITMAP
FB80
7100
7100
3200
3A00
1A00
1C00
1C00
0800
ENDCHAR
STARTCHAR w
ENCODING 119
SWIDTH 813 0
DWIDTH 15 0
BBX 14 9 0 0
BITMAP
F3DC
7188
7388
33D0
3DD0
3CD0
1CE0
1860
0840
ENDCHAR
STARTCHAR x
ENCODING 120
SWIDTH 538 0
DWIDTH 10 0
BBX 10 9 0 0
BITMAP
FB80
3200
3A00
1C00
1C00
1E00
1600
2700
F7C0
ENDCHAR
STARTCHAR y
ENCODING 121
SWIDTH 527 0
DWIDTH 9 0
BBX 9 13 0 -4
BITMAP
FB80
7100
7100
3200
3A00
1A00
1C00
1C00
0C00
0800
0800
D000
E000
ENDCHAR
STARTCHAR z
ENCODING 122
SWIDTH 477 0
DWIDTH 9 0
BBX 8 9 0 0
BITMAP
7F
47
4E
0C
1C
38
31
73
FF
ENDCHAR
STARTCHAR braceleft
ENCODING 123
SWIDTH 339 0
DWIDTH 6 0
BBX 5 16 1 -3
BITMAP
38
60
60
60
60
20
60
C0
60
20
20
60
60
60
60
38
ENDCHAR
STARTCHAR bar
ENCODING 124
SWIDTH 280 0
DWIDTH 5 0
BBX 1 18 2 -4
BITMAP
80
80
80
80
80
80
80
80
80
80
80
80
80
80
80
80
80
80
ENDCHAR
STARTCHAR braceright
ENCODING 125
SWIDTH 339 0
DWIDTH 6 0
BBX 4 16 1 -3
BITMAP
C0
60
60
60
60
40
60
10
60
40
60
60
60
60
60
C0
ENDCHAR
STARTCHAR asciitilde
ENCODING 126
SWIDTH 530 0
DWIDTH 10 0
BBX 8 3 1 5
BITMAP
61
9B
8E
ENDCHAR
STARTCHAR uni00A0
ENCODING 160
SWIDTH 220 0
DWIDTH 4 0
BBX 1 1 0 0
BITMAP
00
ENDCHAR
STARTCHAR exclamdown
ENCODING 161
SWIDTH 328 0
DWIDTH 6 0
BBX 3 12 1 -3
BITMAP
60
E0
60
00
40
60
60
60
60
60
E0
60
ENDCHAR
STARTCHAR cent
ENCODING 162
SWIDTH 528 0
DWIDTH 10 0
BBX 8 13 1 -1
BITMAP
08
08
3E
6B
EB
CA
C8
E8
E8
79
3E
08
08
ENDCHAR
STARTCHAR sterling
ENCODING 163
SWIDTH 528 0
DWIDTH 10 0
BBX 8 12 1 0
BITMAP
3C
66
66
60
60
60
FC
20
20
60
7F
FF
ENDCHAR
STARTCHAR currency
ENCODING 164
SWIDTH 528 0
DWIDTH 10 0
BBX 9 8 0 2
BITMAP
C180
7F00
3300
2300
2300
3300
7F00
C180
ENDCHAR
STARTCHAR yen
ENCODING 165
SWIDTH 528 0
DWIDTH 10 0
BBX 10 12 0 0
BITMAP
FBC0
7100
3100
3200
3A00
1A00
7F80
0C00
7F80
0C00
0C00
3F00
ENDCHAR
STARTCHAR brokenbar
ENCODING 166
SWIDTH 280 0
DWIDTH 5 0
BBX 1 18 2 -4
BITMAP
80
80
80
80
80
80
80
80
00
00
80
80
80
80
80
80
80
80
ENDCHAR
STARTCHAR section
ENCODING 167
SWIDTH 518 0
DWIDTH 9 0
BBX 8 14 1 -2
BITMAP
3C
66
46
60
7C
9E
C6
E3
7A
3C
0C
C6
E4
78
ENDCHAR
STARTCHAR dieresis
ENCODING 168
SWIDTH 400 0
DWIDTH 7 0
BBX 6 2 1 11
BITMAP
CC
CC
ENDCHAR
STARTCHAR copyright
ENCODING 169
SWIDTH 748 0
DWIDTH 13 0
BBX 12 12 1 0
BITMAP
1F00
20C0
4060
8F20
9910
9010
B010
9010
9920
4F60
20C0
1F00
ENDCHAR
STARTCHAR ordfeminine
ENCODING 170
SWIDTH 366 0
DWIDTH 7 0
BBX 6 6 1 7
BITMAP
F0
98
38
D8
98
FC
ENDCHAR
STARTCHAR guillemotleft
ENCODING 171
SWIDTH 479 0
DWIDTH 9 0
BBX 8 7 1 1
BITMAP
22
77
CC
88
CC
66
33
ENDCHAR
STARTCHAR logicalnot
ENCODING 172
SWIDTH 530 0
DWIDTH 10 0
BBX 8 4 1 3
BITMAP
FF
03
03
03
ENDCHAR
STARTCHAR uni00AD
ENCODING 173
SWIDTH 330 0
DWIDTH 6 0
BBX 4 1 1 4
BITMAP
F0
ENDCHAR
STARTCHAR registered
ENCODING 174
SWIDTH 466 0
DWIDTH 8 0
BBX 7 7 1 6
BITMAP
78
84
BA
AA
B2
AC
78
ENDCHAR
STARTCHAR macron
ENCODING 175
SWIDTH 400 0
DWIDTH 7 0
BBX 6 1 1 11
BITMAP
FC
ENDCHAR
STARTCHAR degree
ENCODING 176
SWIDTH 356 0
DWIDTH 6 0
BBX 5 5 1 7
BITMAP
70
98
88
98
70
ENDCHAR
STARTCHAR plusminus
ENCODING 177
SWIDTH 530 0
DWIDTH 10 0
BBX 8 10 1 0
BITMAP
18
18
18
FF
18
18
18
00
00
FF
ENDCHAR
STARTCHAR two.sups
ENCODING 178
SWIDTH 358 0
DWIDTH 6 0
BBX 5 8 1 7
BITMAP
70
90
98
30
20
40
F8
F8
ENDCHAR
STARTCHAR three.sups
ENCODING 179
SWIDTH 357 0
DWIDTH 6 0
BBX 6 8 0 7
BITMAP
38
4C
4C
38
18
4C
CC
78
ENDCHAR
STARTCHAR acute
ENCODING 180
SWIDTH 400 0
DWIDTH 7 0
BBX 4 4 2 10
BITMAP
30
70
60
80
ENDCHAR
STARTCHAR uni00B5
ENCODING 181
SWIDTH 609 0
DWIDTH 11 0
BBX 10 13 1 -4
BITMAP
C300
4300
4300
4300
4300
4300
6300
FF00
FDC0
C000
C000
C000
C000
ENDCHAR
STARTCHAR paragraph
ENCODING 182
SWIDTH 652 0
DWIDTH 12 0
BBX 11 14 0 -2
BITMAP
1FE0
3D80
7D80
7D80
FD80
7D80
7D80
7D80
3D80
0580
0180
0180
0180
01C0
ENDCHAR
STARTCHAR periodcentered
ENCODING 183
SWIDTH 300 0
DWIDTH 5 0
BBX 3 3 1 5
BITMAP
60
E0
60
ENDCHAR
STARTCHAR cedilla
ENCODING 184
SWIDTH 400 0
DWIDTH 7 0
BBX 3 5 2 -5
BITMAP
C0
60
A0
20
E0
ENDCHAR
STARTCHAR one.sups
ENCODING 185
SWIDTH 328 0
DWIDTH 6 0
BBX 4 8 1 7
BITMAP
E0
E0
60
60
60
60
60
F0
ENDCHAR
STARTCHAR ordmasculine
ENCODING 186
SWIDTH 388 0
DWIDTH 7 0
BBX 7 6 0 7
BITMAP
38
6C
C6
C6
6C
38
ENDCHAR
STARTCHAR guillemotright
ENCODING 187
SWIDTH 479 0
DWIDTH 9 0
BBX 9 7 0 1
BITMAP
4400
EE00
3300
1980
3300
6600
CC00
ENDCHAR
STARTCHAR onequarter
ENCODING 188
SWIDTH 880 0
DWIDTH 16 0
BBX 13 12 1 0
BITMAP
E010
E020
6040
60C0
6090
6130
6350
F290
0490
09F8
1810
1010
ENDCHAR
STARTCHAR onehalf
ENCODING 189
SWIDTH 880 0
DWIDTH 16 0
BBX 14 12 1 0
BITMAP
E010
E020
6040
60C0
60B8
6148
634C
F218
0410
0820
187C
107C
ENDCHAR
STARTCHAR threequarters
ENCODING 190
SWIDTH 880 0
DWIDTH 16 0
BBX 13 12 1 0
BITMAP
3810
4C20
4C40
38C0
1890
4D30
CF50
7A90
0490
09F8
1810
1010
ENDCHAR
STARTCHAR questiondown
ENCODING 191
SWIDTH 471 0
DWIDTH 8 0
BBX 6 12 1 -3
BITMAP
1C
1C
1C
00
00
08
38
F8
E0
C0
7C
1C
ENDCHAR
STARTCHAR Agrave
ENCODING 192
SWIDTH 673 0
DWIDTH 12 0
BBX 12 16 0 0
BITMAP
0C00
0600
0100
0000
0200
0600
0700
0B00
0B00
0B80
1180
1FC0
21C0
20C0
20E0
F1F0
ENDCHAR
STARTCHAR Aacute
ENCODING 193
SWIDTH 673 0
DWIDTH 12 0
BBX 12 16 0 0
BITMAP
0300
0700
0800
0000
0200
0600
0700
0B00
0B00
0B80
1180
1FC0
21C0
20C0
20E0
F1F0
ENDCHAR
STARTCHAR Acircumflex
ENCODING 194
SWIDTH 673 0
DWIDTH 12 0
BBX 12 16 0 0
BITMAP
0600
0F00
1980
1080
0200
0600
0700
0B00
0B00
0B80
1180
1FC0
21C0
20C0
20E0
F1F0
ENDCHAR
STARTCHAR Atilde
ENCODING 195
SWIDTH 673 0
DWIDTH 12 0
BBX 12 15 0 0
BITMAP
1E80
1380
0000
0200
0600
0700
0B00
0B00
0B80
1180
1FC0
21C0
20C0
20E0
F1F0
ENDCHAR
STARTCHAR Adieresis
ENCODING 196
SWIDTH 673 0
DWIDTH 12 0
BBX 12 15 0 0
BITMAP
1980
1980
0000
0200
0600
0700
0B00
0B00
0B80
1180
1FC0
21C0
20C0
20E0
F1F0
ENDCHAR
STARTCHAR Aring
ENCODING 197
SWIDTH 673 0
DWIDTH 12 0
BBX 12 17 0 0
BITMAP
0600
0900
0900
0600
0000
0200
0600
0700
0B00
0B00
0B80
1180
1FC0
21C0
20C0
20E0
F1F0
ENDCHAR
STARTCHAR AE
ENCODING 198
SWIDTH 913 0
DWIDTH 16 0
BBX 16 12 0 0
BITMAP
07FF
02C3
02C3
04C4
04C4
0CFC
08C4
1FC4
10C0
20C1
20C3
F3FF
ENDCHAR
STARTCHAR Ccedilla
ENCODING 199
SWIDTH 622 0
DWIDTH 11 0
BBX 10 17 1 -5
BITMAP
1F80
7080
6080
E080
C000
C000
C000
C000
E0C0
E0C0
70C0
1F80
0400
0300
0500
0100
0700
ENDCHAR
STARTCHAR Egrave
ENCODING 200
SWIDTH 598 0
DWIDTH 11 0
BBX 9 16 1 0
BITMAP
3000
1800
0400
0000
FF80
7180
7180
7200
7200
7E00
7200
7200
7000
7080
7080
FF80
ENDCHAR
STARTCHAR Eacute
ENCODING 201
SWIDTH 598 0
DWIDTH 11 0
BBX 9 16 1 0
BITMAP
0600
0E00
1000
0000
FF80
7180
7180
7200
7200
7E00
7200
7200
7000
7080
7080
FF80
ENDCHAR
STARTCHAR Ecircumflex
ENCODING 202
SWIDTH 598 0
DWIDTH 11 0
BBX 9 16 1 0
BITMAP
0C00
1E00
3300
2100
FF80
7180
7180
7200
7200
7E00
7200
7200
7000
7080
7080
FF80
ENDCHAR
STARTCHAR Edieresis
ENCODING 203
SWIDTH 598 0
DWIDTH 11 0
BBX 9 15 1 0
BITMAP
3300
3300
0000
FF80
7180
7180
7200
7200
7E00
7200
7200
7000
7080
7080
FF80
ENDCHAR
STARTCHAR Igrave
ENCODING 204
SWIDTH 376 0
DWIDTH 7 0
BBX 5 16 1 0
BITMAP
C0
60
10
00
F8
70
70
70
70
70
70
70
70
70
70
F8
ENDCHAR
STARTCHAR Iacute
ENCODING 205
SWIDTH 376 0
DWIDTH 7 0
BBX 5 16 1 0
BITMAP
18
38
40
00
F8
70
70
70
70
70
70
70
70
70
70
F8
ENDCHAR
STARTCHAR Icircumflex
ENCODING 206
SWIDTH 376 0
DWIDTH 7 0
BBX 6 16 0 0
BITMAP
30
78
CC
84
7C
38
38
38
38
38
38
38
38
38
38
7C
ENDCHAR
STARTCHAR Idieresis
ENCODING 207
SWIDTH 376 0
DWIDTH 7 0
BBX 6 15 0 0
BITMAP
CC
CC
00
7C
38
38
38
38
38
38
38
38
38
38
7C
ENDCHAR
STARTCHAR Eth
ENCODING 208
SWIDTH 692 0
DWIDTH 12 0
BBX 11 12 1 0
BITMAP
FF00
7380
71C0
70E0
70E0
FCE0
70E0
70E0
70C0
71C0
7380
FE00
ENDCHAR
STARTCHAR Ntilde
ENCODING 209
SWIDTH 761 0
DWIDTH 14 0
BBX 13 15 0 0
BITMAP
0F40
09C0
0000
78F8
3810
3C10
2E10
2710
2790
2390
21D0
20F0
2070
2070
F830
ENDCHAR
STARTCHAR Ograve
ENCODING 210
SWIDTH 708 0
DWIDTH 13 0
BBX 11 16 1 0
BITMAP
1800
0C00
0200
0000
1F00
7180
60C0
E0E0
C0E0
C0E0
C0E0
C0E0
E0E0
60C0
7180
1F00
ENDCHAR
STARTCHAR Oacute
ENCODING 211
SWIDTH 708 0
DWIDTH 13 0
BBX 11 16 1 0
BITMAP
0300
0700
0800
0000
1F00
7180
60C0
E0E0
C0E0
C0E0
C0E0
C0E0
E0E0
60C0
7180
1F00
ENDCHAR
STARTCHAR Ocircumflex
ENCODING 212
SWIDTH 708 0
DWIDTH 13 0
BBX 11 16 1 0
BITMAP
0C00
1E00
3300
2100
1F00
7180
60C0
E0E0
C0E0
C0E0
C0E0
C0E0
E0E0
60C0
7180
1F00
ENDCHAR
STARTCHAR Otilde
ENCODING 213
SWIDTH 708 0
DWIDTH 13 0
BBX 11 15 1 0
BITMAP
3D00
2700
0000
1F00
7180
60C0
E0E0
C0E0
C0E0
C0E0
C0E0
E0E0
60C0
7180
1F00
ENDCHAR
STARTCHAR Odieresis
ENCODING 214
SWIDTH 708 0
DWIDTH 13 0
BBX 11 15 1 0
BITMAP
3300
3300
0000
1F00
7180
60C0
E0E0
C0E0
C0E0
C0E0
C0E0
E0E0
60C0
7180
1F00
ENDCHAR
STARTCHAR multiply
ENCODING 215
SWIDTH 530 0
DWIDTH 10 0
BBX 8 8 1 2
BITMAP
82
C7
6C
38
38
6C
C6
83
ENDCHAR
STARTCHAR Oslash
ENCODING 216
SWIDTH 708 0
DWIDTH 13 0
BBX 11 12 1 0
BITMAP
1F40
71E0
61C0
E3E0
C2E0
C6E0
CCE0
D8E0
F0E0
60C0
F180
9F00
ENDCHAR
STARTCHAR Ugrave
ENCODING 217
SWIDTH 750 0
DWIDTH 14 0
BBX 12 16 1 0
BITMAP
0C00
0600
0100
0000
F8F0
7060
7060
7060
7060
7060
7060
7040
7040
7040
3880
1F00
ENDCHAR
STARTCHAR Uacute
ENCODING 218
SWIDTH 750 0
DWIDTH 14 0
BBX 12 16 1 0
BITMAP
0180
0380
0400
0000
F8F0
7060
7060
7060
7060
7060
7060
7040
7040
7040
3880
1F00
ENDCHAR
STARTCHAR Ucircumflex
ENCODING 219
SWIDTH 750 0
DWIDTH 14 0
BBX 12 16 1 0
BITMAP
0600
0F00
1980
1080
F8F0
7060
7060
7060
7060
7060
7060
7040
7040
7040
3880
1F00
ENDCHAR
STARTCHAR Udieresis
ENCODING 220
SWIDTH 750 0
DWIDTH 14 0
BBX 12 15 1 0
BITMAP
0CC0
0CC0
0000
F8F0
7060
7060
7060
7060
7060
7060
7040
7040
7040
3880
1F00
ENDCHAR
STARTCHAR Yacute
ENCODING 221
SWIDTH 606 0
DWIDTH 11 0
BBX 11 16 0 0
BITMAP
0180
0380
0400
0000
FDE0
7080
3880
3900
1D00
1E00
0E00
0E00
0E00
0E00
0E00
3F00
ENDCHAR
STARTCHAR Thorn
ENCODING 222
SWIDTH 614 0
DWIDTH 11 0
BBX 10 12 1 0
BITMAP
F800
7000
7F00
7380
71C0
71C0
71C0
7380
7F00
7000
7000
F800
ENDCHAR
STARTCHAR germandbls
ENCODING 223
SWIDTH 628 0
DWIDTH 11 0
BBX 11 13 0 0
BITMAP
0F80
19C0
30C0
30C0
3180
3300
3300
3380
31C0
30E0
3460
3460
F3C0
ENDCHAR
STARTCHAR agrave
ENCODING 224
SWIDTH 534 0
DWIDTH 10 0
BBX 9 14 1 0
BITMAP
3000
3800
1800
0400
0000
7C00
EE00
C600
0600
1E00
6600
C600
C600
FF80
ENDCHAR
STARTCHAR aacute
ENCODING 225
SWIDTH 534 0
DWIDTH 10 0
BBX 9 14 1 0
BITMAP
0C00
1C00
1800
2000
0000
7C00
EE00
C600
0600
1E00
6600
C600
C600
FF80
ENDCHAR
STARTCHAR acircumflex
ENCODING 226
SWIDTH 534 0
DWIDTH 10 0
BBX 9 14 1 0
BITMAP
1800
3C00
2400
4200
0000
7C00
EE00
C600
0600
1E00
6600
C600
C600
FF80
ENDCHAR
STARTCHAR atilde
ENCODING 227
SWIDTH 534 0
DWIDTH 10 0
BBX 9 13 1 0
BITMAP
2000
5A00
4C00
0000
7C00
EE00
C600
0600
1E00
6600
C600
C600
FF80
ENDCHAR
STARTCHAR adieresis
ENCODING 228
SWIDTH 534 0
DWIDTH 10 0
BBX 9 13 1 0
BITMAP
6600
6600
0000
0000
7C00
EE00
C600
0600
1E00
6600
C600
C600
FF80
ENDCHAR
STARTCHAR aring
ENCODING 229
SWIDTH 534 0
DWIDTH 10 0
BBX 9 14 1 0
BITMAP
1800
2400
2400
1800
0000
7C00
EE00
C600
0600
1E00
6600
C600
C600
FF80
ENDCHAR
STARTCHAR ae
ENCODING 230
SWIDTH 804 0
DWIDTH 14 0
BBX 13 9 1 0
BITMAP
7DE0
EF30
C718
0638
1FF8
6600
C700
C718
FBE0
ENDCHAR
STARTCHAR ccedilla
ENCODING 231
SWIDTH 510 0
DWIDTH 9 0
BBX 8 14 1 -5
BITMAP
3C
66
E7
C2
C0
C0
E0
63
3C
10
0C
14
04
1C
ENDCHAR
STARTCHAR egrave
ENCODING 232
SWIDTH 527 0
DWIDTH 9 0
BBX 8 14 1 0
BITMAP
30
38
18
04
00
3C
66
E3
C7
FF
C0
E0
63
3C
ENDCHAR
STARTCHAR eacute
ENCODING 233
SWIDTH 527 0
DWIDTH 9 0
BBX 8 14 1 0
BITMAP
06
0E
0C
10
00
3C
66
E3
C7
FF
C0
E0
63
3C
ENDCHAR
STARTCHAR ecircumflex
ENCODING 234
SWIDTH 527 0
DWIDTH 9 0
BBX 8 14 1 0
BITMAP
18
3C
24
42
00
3C
66
E3
C7
FF
C0
E0
63
3C
ENDCHAR
STARTCHAR edieresis
ENCODING 235
SWIDTH 527 0
DWIDTH 9 0
BBX 8 13 1 0
BITMAP
66
66
00
00
3C
66
E3
C7
FF
C0
E0
63
3C
ENDCHAR
STARTCHAR igrave
ENCODING 236
SWIDTH 309 0
DWIDTH 6 0
BBX 5 14 0 0
BITMAP
C0
E0
60
10
00
10
70
30
30
30
30
30
30
78
ENDCHAR
STARTCHAR iacute
ENCODING 237
SWIDTH 309 0
DWIDTH 6 0
BBX 4 14 1 0
BITMAP
30
70
60
80
00
20
E0
60
60
60
60
60
60
F0
ENDCHAR
STARTCHAR icircumflex
ENCODING 238
SWIDTH 309 0
DWIDTH 6 0
BBX 6 14 0 0
BITMAP
30
78
48
84
00
10
70
30
30
30
30
30
30
78
ENDCHAR
STARTCHAR idieresis
ENCODING 239
SWIDTH 309 0
DWIDTH 6 0
BBX 6 13 0 0
BITMAP
CC
CC
00
00
10
70
30
30
30
30
30
30
78
ENDCHAR
STARTCHAR eth
ENCODING 240
SWIDTH 545 0
DWIDTH 10 0
BBX 8 13 1 0
BITMAP
62
1D
3C
46
3E
67
C7
C3
C3
C3
C7
66
3C
ENDCHAR
STARTCHAR ntilde
ENCODING 241
SWIDTH 624 0
DWIDTH 11 0
BBX 10 13 1 0
BITMAP
1000
2D00
2600
0000
6F00
F380
6380
6380
6380
6380
6380
6380
F7C0
ENDCHAR
STARTCHAR ograve
ENCODING 242
SWIDTH 566 0
DWIDTH 10 0
BBX 9 14 1 0
BITMAP
6000
7000
3000
0800
0000
3C00
6700
C300
C380
C380
C380
C300
6700
3C00
ENDCHAR
STARTCHAR oacute
ENCODING 243
SWIDTH 566 0
DWIDTH 10 0
BBX 9 14 1 0
BITMAP
0600
0E00
0C00
1000
0000
3C00
6700
C300
C380
C380
C380
C300
6700
3C00
ENDCHAR
STARTCHAR ocircumflex
ENCODING 244
SWIDTH 566 0
DWIDTH 10 0
BBX 9 14 1 0
BITMAP
1800
3C00
2400
4200
0000
3C00
6700
C300
C380
C380
C380
C300
6700
3C00
ENDCHAR
STARTCHAR otilde
ENCODING 245
SWIDTH 566 0
DWIDTH 10 0
BBX 9 13 1 0
BITMAP
2000
5A00
4C00
0000
3C00
6700
C300
C380
C380
C380
C300
6700
3C00
ENDCHAR
STARTCHAR odieresis
ENCODING 246
SWIDTH 566 0
DWIDTH 10 0
BBX 9 13 1 0
BITMAP
6600
6600
0000
0000
3C00
6700
C300
C380
C380
C380
C300
6700
3C00
ENDCHAR
STARTCHAR divide
ENCODING 247
SWIDTH 530 0
DWIDTH 10 0
BBX 8 10 1 1
BITMAP
18
38
00
00
00
FF
00
00
18
38
ENDCHAR
STARTCHAR oslash
ENCODING 248
SWIDTH 566 0
DWIDTH 10 0
BBX 9 9 1 0
BITMAP
3D00
6700
C700
CB80
DB80
F380
E300
6700
BC00
ENDCHAR
STARTCHAR ugrave
ENCODING 249
SWIDTH 602 0
DWIDTH 11 0
BBX 9 14 1 0
BITMAP
3000
3800
1800
0400
0000
E700
6300
6300
E300
E300
E300
E300
6700
7B80
ENDCHAR
STARTCHAR uacute
ENCODING 250
SWIDTH 602 0
DWIDTH 11 0
BBX 9 14 1 0
BITMAP
0600
0E00
0C00
1000
0000
E700
6300
6300
E300
E300
E300
E300
6700
7B80
ENDCHAR
STARTCHAR ucircumflex
ENCODING 251
SWIDTH 602 0
DWIDTH 11 0
BBX 9 14 1 0
BITMAP
1800
3C00
2400
4200
0000
E700
6300
6300
E300
E300
E300
E300
6700
7B80
ENDCHAR
STARTCHAR udieresis
ENCODING 252
SWIDTH 602 0
DWIDTH 11 0
BBX 9 13 1 0
BITMAP
6600
6600
0000
0000
E700
6300
6300
E300
E300
E300
E300
6700
7B80
ENDCHAR
STARTCHAR yacute
ENCODING 253
SWIDTH 527 0
DWIDTH 9 0
BBX 9 18 0 -4
BITMAP
0600
0E00
0C00
1000
0000
FB80
7100
7100
3200
3A00
1A00
1C00
1C00
0C00
0800
0800
D000
E000
ENDCHAR
STARTCHAR thorn
ENCODING 254
SWIDTH 582 0
DWIDTH 10 0
BBX 10 17 0 -4
BITMAP
7000
F000
7000
7000
7F00
7380
71C0
71C0
71C0
71C0
7180
7380
7F00
7000
7000
7000
F800
ENDCHAR
STARTCHAR ydieresis
ENCODING 255
SWIDTH 527 0
DWIDTH 9 0
BBX 9 17 0 -4
BITMAP
3300
3300
0000
0000
FB80
7100
7100
3200
3A00
1A00
1C00
1C00
0C00
0800
0800
D000
E000
ENDCHAR
STARTCHAR Amacron
ENCODING 256
SWIDTH 673 0
DWIDTH 12 0
BBX 12 14 0 0
BITMAP
1F80
0000
0200
0600
0700
0B00
0B00
0B80
1180
1FC0
21C0
20C0
20E0
F1F0
ENDCHAR
STARTCHAR amacron
ENCODING 257
SWIDTH 534 0
DWIDTH 10 0
BBX 9 12 1 0
BITMAP
7E00
0000
0000
7C00
EE00
C600
0600
1E00
6600
C600
C600
FF80
ENDCHAR
STARTCHAR Abreve
ENCODING 258
SWIDTH 673 0
DWIDTH 12 0
BBX 12 15 0 0
BITMAP
1980
0F00
0000
0200
0600
0700
0B00
0B00
0B80
1180
1FC0
21C0
20C0
20E0
F1F0
ENDCHAR
STARTCHAR abreve
ENCODING 259
SWIDTH 534 0
DWIDTH 10 0
BBX 9 14 1 0
BITMAP
4400
6600
3C00
0000
0000
7C00
EE00
C600
0600
1E00
6600
C600
C600
FF80
ENDCHAR
STARTCHAR Aogonek
ENCODING 260
SWIDTH 673 0
DWIDTH 12 0
BBX 12 16 0 -4
BITMAP
0200
0600
0700
0B00
0B00
0B80
1180
1FC0
21C0
20C0
20E0
F1F0
0040
00C0
00C0
00F0
ENDCHAR
STARTCHAR aogonek
ENCODING 261
SWIDTH 534 0
DWIDTH 10 0
BBX 9 13 1 -4
BITMAP
7C00
EE00
C600
0600
1E00
6600
C600
C600
FF80
0200
0400
0600
0780
ENDCHAR
STARTCHAR Cacute
ENCODING 262
SWIDTH 622 0
DWIDTH 11 0
BBX 10 16 1 0
BITMAP
0300
0700
0800
0000
1F80
7080
6080
E080
C000
C000
C000
C000
E0C0
E0C0
70C0
1F80
ENDCHAR
STARTCHAR cacute
ENCODING 263
SWIDTH 510 0
DWIDTH 9 0
BBX 8 14 1 0
BITMAP
06
0E
0C
10
00
3C
66
E7
C2
C0
C0
E0
63
3C
ENDCHAR
STARTCHAR Ccaron
ENCODING 268
SWIDTH 622 0
DWIDTH 11 0
BBX 10 16 1 0
BITMAP
1100
0980
0600
0000
1F80
7080
6080
E080
C000
C000
C000
C000
E0C0
E0C0
70C0
1F80
ENDCHAR
STARTCHAR ccaron
ENCODING 269
SWIDTH 510 0
DWIDTH 9 0
BBX 8 13 1 0
BITMAP
42
24
18
00
3C
66
E7
C2
C0
C0
E0
63
3C
ENDCHAR
STARTCHAR Dcaron
ENCODING 270
SWIDTH 692 0
DWIDTH 12 0
BBX 11 16 1 0
BITMAP
2200
1300
0C00
0000
FF00
7380
71C0
70E0
70E0
70E0
70E0
70E0
70C0
71C0
7380
FE00
ENDCHAR
STARTCHAR dcaron
ENCODING 271
SWIDTH 612 0
DWIDTH 11 0
BBX 12 13 1 0
BITMAP
0330
0F30
0320
0320
3B00
6700
E300
C300
C300
C300
C300
E700
7B80
ENDCHAR
STARTCHAR Dcroat
ENCODING 272
SWIDTH 692 0
DWIDTH 12 0
BBX 11 12 1 0
BITMAP
FF00
7380
71C0
70E0
70E0
FCE0
70E0
70E0
70C0
71C0
7380
FE00
ENDCHAR
STARTCHAR dcroat
ENCODING 273
SWIDTH 592 0
DWIDTH 11 0
BBX 9 13 1 0
BITMAP
0300
0F00
3F80
0300
3B00
6700
E300
C300
C300
C300
C300
E700
7B80
ENDCHAR
STARTCHAR Emacron
ENCODING 274
SWIDTH 598 0
DWIDTH 11 0
BBX 9 14 1 0
BITMAP
3F00
0000
FF80
7180
7180
7200
7200
7E00
7200
7200
7000
7080
7080
FF80
ENDCHAR
STARTCHAR emacron
ENCODING 275
SWIDTH 527 0
DWIDTH 9 0
BBX 8 12 1 0
BITMAP
7E
00
00
3C
66
E3
C7
FF
C0
E0
63
3C
ENDCHAR
STARTCHAR Edotaccent
ENCODING 278
SWIDTH 598 0
DWIDTH 11 0
BBX 9 16 1 0
BITMAP
0C00
0C00
0C00
0000
FF80
7180
7180
7200
7200
7E00
7200
7200
7000
7080
7080
FF80
ENDCHAR
STARTCHAR edotaccent
ENCODING 279
SWIDTH 527 0
DWIDTH 9 0
BBX 8 13 1 0
BITMAP
18
3C
18
00
3C
66
E3
C7
FF
C0
E0
63
3C
ENDCHAR
STARTCHAR Eogonek
ENCODING 280
SWIDTH 598 0
DWIDTH 11 0
BBX 9 16 1 -4
BITMAP
FF80
7180
7180
7200
7200
7E00
7200
7200
7000
7080
7080
FF80
0200
0600
0600
0780
ENDCHAR
STARTCHAR eogonek
ENCODING 281
SWIDTH 527 0
DWIDTH 9 0
BBX 8 13 1 -4
BITMAP
3C
66
E3
C7
FF
C0
E0
63
3C
0C
18
18
0F
ENDCHAR
STARTCHAR Ecaron
ENCODING 282
SWIDTH 598 0
DWIDTH 11 0
BBX 9 16 1 0
BITMAP
2200
1300
0C00
0000
FF80
7180
7180
7200
7200
7E00
7200
7200
7000
7080
7080
FF80
ENDCHAR
STARTCHAR ecaron
ENCODING 283
SWIDTH 527 0
DWIDTH 9 0
BBX 8 13 1 0
BITMAP
42
24
18
00
3C
66
E3
C7
FF
C0
E0
63
3C
ENDCHAR
STARTCHAR Gbreve
ENCODING 286
SWIDTH 674 0
DWIDTH 12 0
BBX 11 15 1 0
BITMAP
1980
0F00
0000
1F80
70C0
60C0
E000
C000
C000
C3E0
C1C0
E1C0
61C0
71C0
1F00
ENDCHAR
STARTCHAR gbreve
ENCODING 287
SWIDTH 544 0
DWIDTH 10 0
BBX 8 18 1 -4
BITMAP
44
66
3C
00
00
7D
E7
C6
C6
E6
7C
C0
FE
7F
C3
C3
C3
FC
ENDCHAR
STARTCHAR Gdotaccent
ENCODING 288
SWIDTH 674 0
DWIDTH 12 0
BBX 11 16 1 0
BITMAP
0600
0600
0600
0000
1F80
70C0
60C0
E000
C000
C000
C3E0
C1C0
E1C0
61C0
71C0
1F00
ENDCHAR
STARTCHAR gdotaccent
ENCODING 289
SWIDTH 544 0
DWIDTH 10 0
BBX 8 17 1 -4
BITMAP
18
3C
18
00
7D
E7
C6
C6
E6
7C
C0
FE
7F
C3
C3
C3
FC
ENDCHAR
STARTCHAR uni0122
ENCODING 290
SWIDTH 674 0
DWIDTH 12 0
BBX 11 17 1 -5
BITMAP
1F80
70C0
60C0
E000
C000
C000
C3E0
C1C0
E1C0
61C0
71C0
1F00
0000
0600
0600
0600
0800
ENDCHAR
STARTCHAR uni0123
ENCODING 291
SWIDTH 544 0
DWIDTH 10 0
BBX 8 18 1 -4
BITMAP
0C
10
18
18
00
7D
E7
C6
C6
E6
7C
C0
FE
7F
C3
C3
C3
FC
ENDCHAR
STARTCHAR Imacron
ENCODING 298
SWIDTH 376 0
DWIDTH 7 0
BBX 6 14 0 0
BITMAP
FC
00
7C
38
38
38
38
38
38
38
38
38
38
7C
ENDCHAR
STARTCHAR imacron
ENCODING 299
SWIDTH 309 0
DWIDTH 6 0
BBX 6 12 0 0
BITMAP
FC
00
00
10
70
30
30
30
30
30
30
78
ENDCHAR
STARTCHAR Iogonek
ENCODING 302
SWIDTH 376 0
DWIDTH 7 0
BBX 5 16 1 -4
BITMAP
F8
70
70
70
70
70
70
70
70
70
70
F8
20
60
60
78
ENDCHAR
STARTCHAR iogonek
ENCODING 303
SWIDTH 309 0
DWIDTH 6 0
BBX 4 17 1 -4
BITMAP
60
E0
00
00
20
E0
60
60
60
60
60
60
F0
40
C0
C0
F0
ENDCHAR
STARTCHAR Idotaccent
ENCODING 304
SWIDTH 376 0
DWIDTH 7 0
BBX 5 16 1 0
BITMAP
60
60
60
00
F8
70
70
70
70
70
70
70
70
70
70
F8
ENDCHAR
STARTCHAR dotlessi
ENCODING 305
SWIDTH 309 0
DWIDTH 6 0
BBX 4 9 1 0
BITMAP
20
E0
60
60
60
60
60
60
F0
ENDCHAR
STARTCHAR uni0136
ENCODING 310
SWIDTH 701 0
DWIDTH 13 0
BBX 12 17 1 -5
BITMAP
F9E0
7180
7100
7200
7600
7E00
7F00
7300
7380
7180
71C0
FBF0
0000
0600
0600
0600
0800
ENDCHAR
STARTCHAR uni0137
ENCODING 311
SWIDTH 590 0
DWIDTH 11 0
BBX 11 18 0 -5
BITMAP
3000
F000
3000
3000
33C0
3100
3200
3600
3F00
3700
3380
3180
79E0
0000
0C00
0C00
0C00
1000
ENDCHAR
STARTCHAR Lacute
ENCODING 313
SWIDTH 580 0
DWIDTH 10 0
BBX 9 16 1 0
BITMAP
0C00
1C00
2000
0000
F800
7000
7000
7000
7000
7000
7000
7000
7080
7180
7180
FF80
ENDCHAR
STARTCHAR lacute
ENCODING 314
SWIDTH 309 0
DWIDTH 6 0
BBX 5 17 0 0
BITMAP
18
38
40
00
30
F0
30
30
30
30
30
30
30
30
30
30
78
ENDCHAR
STARTCHAR Lcaron
ENCODING 317
SWIDTH 580 0
DWIDTH 10 0
BBX 9 13 1 0
BITMAP
0180
F980
7100
7100
7000
7000
7000
7000
7000
7080
7180
7180
FF80
ENDCHAR
STARTCHAR lcaron
ENCODING 318
SWIDTH 329 0
DWIDTH 6 0
BBX 8 13 0 0
BITMAP
33
F3
32
32
30
30
30
30
30
30
30
30
78
ENDCHAR
STARTCHAR Ldot
ENCODING 319
SWIDTH 580 0
DWIDTH 10 0
BBX 9 12 1 0
BITMAP
F800
7000
7000
7180
7380
7180
7000
7000
7080
7180
7180
FF80
ENDCHAR
STARTCHAR ldot
ENCODING 320
SWIDTH 410 0
DWIDTH 7 0
BBX 8 13 0 0
BITMAP
30
F0
30
30
30
37
37
37
30
30
30
30
78
ENDCHAR
STARTCHAR Lslash
ENCODING 321
SWIDTH 580 0
DWIDTH 10 0
BBX 9 12 1 0
BITMAP
F800
7000
7000
7000
7400
7800
F000
F000
7080
7180
7180
FF80
ENDCHAR
STARTCHAR lslash
ENCODING 322
SWIDTH 309 0
DWIDTH 6 0
BBX 6 13 0 0
BITMAP
30
F0
30
30
34
38
F0
30
30
30
30
30
78
ENDCHAR
STARTCHAR Nacute
ENCODING 323
SWIDTH 761 0
DWIDTH 14 0
BBX 13 16 0 0
BITMAP
0180
0380
0400
0000
78F8
3810
3C10
2E10
2710
2790
2390
21D0
20F0
2070
2070
F830
ENDCHAR
STARTCHAR nacute
ENCODING 324
SWIDTH 624 0
DWIDTH 11 0
BBX 10 14 1 0
BITMAP
0600
0E00
0C00
1000
0000
6F00
F380
6380
6380
6380
6380
6380
6380
F7C0
ENDCHAR
STARTCHAR uni0145
ENCODING 325
SWIDTH 761 0
DWIDTH 14 0
BBX 13 17 0 -5
BITMAP
78F8
3810
3C10
2E10
2710
2790
2390
21D0
20F0
2070
2070
F830
0000
0180
0180
0180
0200
ENDCHAR
STARTCHAR uni0146
ENCODING 326
SWIDTH 624 0
DWIDTH 11 0
BBX 10 14 1 -5
BITMAP
6F00
F380
6380
6380
6380
6380
6380
6380
F7C0
0000
0C00
0C00
0C00
1000
ENDCHAR
STARTCHAR Ncaron
ENCODING 327
SWIDTH 761 0
DWIDTH 14 0
BBX 13 16 0 0
BITMAP
0880
04C0
0300
0000
78F8
3810
3C10
2E10
2710
2790
2390
21D0
20F0
2070
2070
F830
ENDCHAR
STARTCHAR ncaron
ENCODING 328
SWIDTH 624 0
DWIDTH 11 0
BBX 10 13 1 0
BITMAP
2100
1200
0C00
0000
6F00
F380
6380
6380
6380
6380
6380
6380
F7C0
ENDCHAR
STARTCHAR Omacron
ENCODING 332
SWIDTH 708 0
DWIDTH 13 0
BBX 11 14 1 0
BITMAP
3F00
0000
1F00
7180
60C0
E0E0
C0E0
C0E0
C0E0
C0E0
E0E0
60C0
7180
1F00
ENDCHAR
STARTCHAR omacron
ENCODING 333
SWIDTH 566 0
DWIDTH 10 0
BBX 9 12 1 0
BITMAP
7E00
0000
0000
3C00
6700
C300
C380
C380
C380
C300
6700
3C00
ENDCHAR
STARTCHAR Ohungarumlaut
ENCODING 336
SWIDTH 708 0
DWIDTH 13 0
BBX 11 16 1 0
BITMAP
0D80
0D00
0B00
1200
1F00
7180
60C0
E0E0
C0E0
C0E0
C0E0
C0E0
E0E0
60C0
7180
1F00
ENDCHAR
STARTCHAR ohungarumlaut
ENCODING 337
SWIDTH 566 0
DWIDTH 10 0
BBX 9 14 1 0
BITMAP
0B00
1A00
1600
2400
0000
3C00
6700
C300
C380
C380
C380
C300
6700
3C00
ENDCHAR
STARTCHAR OE
ENCODING 338
SWIDTH 933 0
DWIDTH 17 0
BBX 15 12 1 0
BITMAP
1FFE
31C6
61C2
E1C8
C1C8
C1F8
C1C8
C1C8
E1C0
61C2
31C2
1FFE
ENDCHAR
STARTCHAR oe
ENCODING 339
SWIDTH 867 0
DWIDTH 16 0
BBX 14 9 1 0
BITMAP
3CF0
6798
C38C
C30C
C3FC
C300
C380
678C
3CF8
ENDCHAR
STARTCHAR Racute
ENCODING 340
SWIDTH 671 0
DWIDTH 12 0
BBX 11 16 1 0
BITMAP
0300
0700
0800
0000
FF00
7380
7180
7180
7180
7380
7E00
7300
7380
7380
7180
F9E0
ENDCHAR
STARTCHAR racute
ENCODING 341
SWIDTH 457 0
DWIDTH 8 0
BBX 7 14 1 0
BITMAP
0C
1C
18
20
00
6E
EE
76
60
60
60
60
60
F8
ENDCHAR
STARTCHAR uni0156
ENCODING 342
SWIDTH 671 0
DWIDTH 12 0
BBX 11 17 1 -5
BITMAP
FF00
7380
7180
7180
7180
7380
7E00
7300
7380
7380
7180
F9E0
0000
0600
0600
0600
0800
ENDCHAR
STARTCHAR uni0157
ENCODING 343
SWIDTH 457 0
DWIDTH 8 0
BBX 7 14 1 -5
BITMAP
6E
EE
76
60
60
60
60
60
F8
00
60
60
60
80
ENDCHAR
STARTCHAR Rcaron
ENCODING 344
SWIDTH 671 0
DWIDTH 12 0
BBX 11 16 1 0
BITMAP
2200
1300
0C00
0000
FF00
7380
7180
7180
7180
7380
7E00
7300
7380
7380
7180
F9E0
ENDCHAR
STARTCHAR rcaron
ENCODING 345
SWIDTH 457 0
DWIDTH 8 0
BBX 7 13 1 0
BITMAP
42
24
18
00
6E
EE
76
60
60
60
60
60
F8
ENDCHAR
STARTCHAR Sacute
ENCODING 346
SWIDTH 534 0
DWIDTH 10 0
BBX 8 16 1 0
BITMAP
0C
1C
20
00
3E
C6
C2
C0
F0
FC
3E
0F
83
83
C6
7C
ENDCHAR
STARTCHAR sacute
ENCODING 347
SWIDTH 464 0
DWIDTH 8 0
BBX 7 14 1 0
BITMAP
0C
1C
18
20
00
7C
C4
C4
F0
7C
1E
86
8C
78
ENDCHAR
STARTCHAR uni015E
ENCODING 350
SWIDTH 534 0
DWIDTH 10 0
BBX 8 17 1 -5
BITMAP
3E
C6
C2
C0
F0
FC
3E
0F
83
83
C6
7C
10
0C
14
04
1C
ENDCHAR
STARTCHAR uni015F
ENCODING 351
SWIDTH 464 0
DWIDTH 8 0
BBX 7 14 1 -5
BITMAP
7C
C4
C4
F0
7C
1E
86
8C
78
20
18
28
08
38
ENDCHAR
STARTCHAR Scaron
ENCODING 352
SWIDTH 534 0
DWIDTH 10 0
BBX 8 16 1 0
BITMAP
44
26
18
00
3E
C6
C2
C0
F0
FC
3E
0F
83
83
C6
7C
ENDCHAR
STARTCHAR scaron
ENCODING 353
SWIDTH 464 0
DWIDTH 8 0
BBX 7 13 1 0
BITMAP
84
48
30
00
7C
C4
C4
F0
7C
1E
86
8C
78
ENDCHAR
STARTCHAR uni0162
ENCODING 354
SWIDTH 644 0
DWIDTH 12 0
BBX 11 17 0 -5
BITMAP
FFE0
CE20
CE20
0E00
0E00
0E00
0E00
0E00
0E00
0E00
0E00
1F80
0400
0300
0500
0100
0700
ENDCHAR
STARTCHAR uni0163
ENCODING 355
SWIDTH 356 0
DWIDTH 6 0
BBX 6 16 0 -5
BITMAP
30
30
FC
70
70
70
70
70
70
30
3C
10
0C
14
04
1C
ENDCHAR
STARTCHAR Tcaron
ENCODING 356
SWIDTH 644 0
DWIDTH 12 0
BBX 11 16 0 0
BITMAP
1100
0980
0600
0000
FFE0
CE20
CE20
0E00
0E00
0E00
0E00
0E00
0E00
0E00
0E00
1F80
ENDCHAR
STARTCHAR tcaron
ENCODING 357
SWIDTH 356 0
DWIDTH 6 0
BBX 7 13 0 0
BITMAP
06
06
34
34
FC
70
70
70
70
70
70
30
3C
ENDCHAR
STARTCHAR Umacron
ENCODING 362
SWIDTH 750 0
DWIDTH 14 0
BBX 12 14 1 0
BITMAP
0FC0
0000
F8F0
7060
7060
7060
7060
7060
7060
7040
7040
7040
3880
1F00
ENDCHAR
STARTCHAR umacron
ENCODING 363
SWIDTH 602 0
DWIDTH 11 0
BBX 9 12 1 0
BITMAP
7E00
0000
0000
E700
6300
6300
E300
E300
E300
E300
6700
7B80
ENDCHAR
STARTCHAR Uring
ENCODING 366
SWIDTH 750 0
DWIDTH 14 0
BBX 12 17 1 0
BITMAP
0600
0900
0900
0600
0000
F8F0
7060
7060
7060
7060
7060
7060
7040
7040
7040
3880
1F00
ENDCHAR
STARTCHAR uring
ENCODING 367
SWIDTH 602 0
DWIDTH 11 0
BBX 9 14 1 0
BITMAP
1800
2400
2400
1800
0000
E700
6300
6300
E300
E300
E300
E300
6700
7B80
ENDCHAR
STARTCHAR Uhungarumlaut
ENCODING 368
SWIDTH 750 0
DWIDTH 14 0
BBX 12 16 1 0
BITMAP
06C0
0680
0580
0900
F8F0
7060
7060
7060
7060
7060
7060
7040
7040
7040
3880
1F00
ENDCHAR
STARTCHAR uhungarumlaut
ENCODING 369
SWIDTH 602 0
DWIDTH 11 0
BBX 9 14 1 0
BITMAP
0B00
1A00
1600
2400
0000
E700
6300
6300
E300
E300
E300
E300
6700
7B80
ENDCHAR
STARTCHAR Uogonek
ENCODING 370
SWIDTH 750 0
DWIDTH 14 0
BBX 12 16 1 -4
BITMAP
F8F0
7060
7060
7060
7060
7060
7060
7060
7040
7040
38C0
1F80
0300
0200
0300
03C0
ENDCHAR
STARTCHAR uogonek
ENCODING 371
SWIDTH 602 0
DWIDTH 11 0
BBX 10 13 1 -4
BITMAP
E700
6300
6300
E300
E300
E300
E300
6700
7B80
0300
0200
0200
03C0
ENDCHAR
STARTCHAR Ydieresis
ENCODING 376
SWIDTH 606 0
DWIDTH 11 0
BBX 11 15 0 0
BITMAP
1980
1980
0000
FDE0
7080
3880
3900
1D00
1E00
0E00
0E00
0E00
0E00
0E00
3F00
ENDCHAR
STARTCHAR Zacute
ENCODING 377
SWIDTH 569 0
DWIDTH 10 0
BBX 10 16 0 0
BITMAP
0300
0700
0800
0000
7FC0
4380
4300
0700
0E00
0E00
1C00
1800
3800
70C0
70C0
FFC0
ENDCHAR
STARTCHAR zacute
ENCODING 378
SWIDTH 477 0
DWIDTH 9 0
BBX 8 14 0 0
BITMAP
06
0E
0C
10
00
7F
47
4E
0C
1C
38
31
73
FF
ENDCHAR
STARTCHAR Zdotaccent
ENCODING 379
SWIDTH 569 0
DWIDTH 10 0
BBX 10 16 0 0
BITMAP
0C00
0C00
0C00
0000
7FC0
4380
4300
0700
0E00
0E00
1C00
1800
3800
70C0
70C0
FFC0
ENDCHAR
STARTCHAR zdotaccent
ENCODING 380
SWIDTH 477 0
DWIDTH 9 0
BBX 8 13 0 0
BITMAP
18
3C
18
00
7F
47
4E
0C
1C
38
31
73
FF
ENDCHAR
STARTCHAR Zcaron
ENCODING 381
SWIDTH 569 0
DWIDTH 10 0
BBX 10 16 0 0
BITMAP
2200
1300
0C00
0000
7FC0
4380
4300
0700
0E00
0E00
1C00
1800
3800
70C0
70C0
FFC0
ENDCHAR
STARTCHAR zcaron
ENCODING 382
SWIDTH 477 0
DWIDTH 9 0
BBX 8 13 0 0
BITMAP
21
12
0C
00
7F
47
4E
0C
1C
38
31
73
FF
ENDCHAR
STARTCHAR longs
ENCODING 383
SWIDTH 344 0
DWIDTH 6 0
BBX 8 13 0 0
BITMAP
0E
1F
30
30
30
30
30
30
30
30
30
30
F8
ENDCHAR
STARTCHAR uni0192
ENCODING 402
SWIDTH 528 0
DWIDTH 10 0
BBX 10 14 0 -2
BITMAP
0380
06C0
0C00
0C00
0C00
3F00
0C00
0C00
0C00
1C00
1C00
1800
D800
F000
ENDCHAR
STARTCHAR uni0218
ENCODING 536
SWIDTH 534 0
DWIDTH 10 0
BBX 8 17 1 -5
BITMAP
3E
C6
C2
C0
F0
FC
3E
0F
83
83
C6
7C
00
18
18
18
20
ENDCHAR
STARTCHAR uni0219
ENCODING 537
SWIDTH 464 0
DWIDTH 8 0
BBX 7 14 1 -5
BITMAP
7C
C4
C4
F0
7C
1E
86
8C
78
00
30
30
30
40
ENDCHAR
STARTCHAR uni021A
ENCODING 538
SWIDTH 644 0
DWIDTH 12 0
BBX 11 17 0 -5
BITMAP
FFE0
CE20
CE20
0E00
0E00
0E00
0E00
0E00
0E00
0E00
0E00
1F80
0000
0600
0600
0600
0800
ENDCHAR
STARTCHAR uni021B
ENCODING 539
SWIDTH 356 0
DWIDTH 6 0
BBX 6 16 0 -5
BITMAP
30
30
FC
70
70
70
70
70
70
30
3C
00
18
18
18
20
ENDCHAR
STARTCHAR h.sups
ENCODING 688
SWIDTH 421 0
DWIDTH 8 0
BBX 7 9 0 7
BITMAP
E0
60
60
7C
66
66
66
66
FE
ENDCHAR
STARTCHAR j.sups
ENCODING 690
SWIDTH 213 0
DWIDTH 4 0
BBX 4 11 -1 5
BITMAP
30
30
00
30
70
30
30
30
30
B0
E0
ENDCHAR
STARTCHAR r.sups
ENCODING 691
SWIDTH 314 0
DWIDTH 6 0
BBX 6 6 0 7
BITMAP
6C
F0
60
60
60
F0
ENDCHAR
STARTCHAR w.sups
ENCODING 695
SWIDTH 557 0
DWIDTH 10 0
BBX 10 6 0 7
BITMAP
EEC0
6480
6F00
3700
3300
1200
ENDCHAR
STARTCHAR y.sups
ENCODING 696
SWIDTH 361 0
DWIDTH 7 0
BBX 6 8 0 5
BITMAP
EC
68
68
28
30
10
A0
E0
ENDCHAR
STARTCHAR uni02BB
ENCODING 699
SWIDTH 215 0
DWIDTH 4 0
BBX 2 6 1 7
BITMAP
40
80
80
C0
C0
80
ENDCHAR
STARTCHAR uni02BC
ENCODING 700
SWIDTH 215 0
DWIDTH 4 0
BBX 2 6 1 7
BITMAP
C0
C0
C0
40
80
80
ENDCHAR
STARTCHAR circumflex
ENCODING 710
SWIDTH 400 0
DWIDTH 7 0
BBX 6 4 1 10
BITMAP
30
78
48
84
ENDCHAR
STARTCHAR caron
ENCODING 711
SWIDTH 400 0
DWIDTH 7 0
BBX 6 3 1 10
BITMAP
84
48
30
ENDCHAR
STARTCHAR uni02C9
ENCODING 713
SWIDTH 400 0
DWIDTH 7 0
BBX 6 1 1 11
BITMAP
FC
ENDCHAR
STARTCHAR uni02CA
ENCODING 714
SWIDTH 400 0
DWIDTH 7 0
BBX 4 4 2 10
BITMAP
30
70
60
80
ENDCHAR
STARTCHAR uni02CB
ENCODING 715
SWIDTH 400 0
DWIDTH 7 0
BBX 4 4 2 10
BITMAP
C0
E0
60
10
ENDCHAR
STARTCHAR breve
ENCODING 728
SWIDTH 400 0
DWIDTH 7 0
BBX 6 3 1 11
BITMAP
88
CC
78
ENDCHAR
STARTCHAR dotaccent
ENCODING 729
SWIDTH 400 0
DWIDTH 7 0
BBX 3 3 3 10
BITMAP
C0
E0
C0
ENDCHAR
STARTCHAR ring
ENCODING 730
SWIDTH 400 0
DWIDTH 7 0
BBX 4 4 2 10
BITMAP
60
90
90
60
ENDCHAR
STARTCHAR ogonek
ENCODING 731
SWIDTH 400 0
DWIDTH 7 0
BBX 4 4 1 -4
BITMAP
60
C0
C0
F0
ENDCHAR
STARTCHAR tilde
ENCODING 732
SWIDTH 400 0
DWIDTH 7 0
BBX 6 3 1 10
BITMAP
40
B4
98
ENDCHAR
STARTCHAR hungarumlaut
ENCODING 733
SWIDTH 400 0
DWIDTH 7 0
BBX 6 4 1 10
BITMAP
2C
68
58
90
ENDCHAR
STARTCHAR l.sups
ENCODING 737
SWIDTH 212 0
DWIDTH 4 0
BBX 4 9 0 7
BITMAP
E0
60
60
60
60
60
60
60
F0
ENDCHAR
STARTCHAR s.sups
ENCODING 738
SWIDTH 322 0
DWIDTH 6 0
BBX 4 6 1 7
BITMAP
F0
90
E0
70
90
F0
ENDCHAR
STARTCHAR x.sups
ENCODING 739
SWIDTH 369 0
DWIDTH 7 0
BBX 7 6 0 7
BITMAP
EC
68
30
38
58
FE
ENDCHAR
STARTCHAR uni0300
ENCODING 768
SWIDTH 0 0
DWIDTH 0 0
BBX 4 4 -2 10
BITMAP
C0
E0
60
10
ENDCHAR
STARTCHAR uni0301
ENCODING 769
SWIDTH 0 0
DWIDTH 0 0
BBX 4 4 -2 10
BITMAP
30
70
60
80
ENDCHAR
STARTCHAR uni0302
ENCODING 770
SWIDTH 0 0
DWIDTH 0 0
BBX 6 4 -3 10
BITMAP
30
78
48
84
ENDCHAR
STARTCHAR uni0303
ENCODING 771
SWIDTH 0 0
DWIDTH 0 0
BBX 6 3 -3 10
BITMAP
40
B4
98
ENDCHAR
STARTCHAR uni0304
ENCODING 772
SWIDTH 0 0
DWIDTH 0 0
BBX 6 1 -3 11
BITMAP
FC
ENDCHAR
STARTCHAR uni0306
ENCODING 774
SWIDTH 0 0
DWIDTH 0 0
BBX 6 3 -3 11
BITMAP
88
CC
78
ENDCHAR
STARTCHAR uni0307
ENCODING 775
SWIDTH 0 0
DWIDTH 0 0
BBX 3 3 -1 10
BITMAP
C0
E0
C0
ENDCHAR
STARTCHAR uni0308
ENCODING 776
SWIDTH 0 0
DWIDTH 0 0
BBX 6 2 -3 11
BITMAP
CC
CC
ENDCHAR
STARTCHAR uni030A
ENCODING 778
SWIDTH 0 0
DWIDTH 0 0
BBX 4 4 -2 10
BITMAP
60
90
90
60
ENDCHAR
STARTCHAR uni030B
ENCODING 779
SWIDTH 0 0
DWIDTH 0 0
BBX 6 4 -3 10
BITMAP
2C
68
58
90
ENDCHAR
STARTCHAR uni030C
ENCODING 780
SWIDTH 0 0
DWIDTH 0 0
BBX 6 3 -3 10
BITMAP
84
48
30
ENDCHAR
STARTCHAR uni0326
ENCODING 806
SWIDTH 0 0
DWIDTH 0 0
BBX 3 4 -2 -5
BITMAP
60
60
60
80
ENDCHAR
STARTCHAR uni0327
ENCODING 807
SWIDTH 0 0
DWIDTH 0 0
BBX 3 5 -1 -5
BITMAP
C0
60
A0
20
E0
ENDCHAR
STARTCHAR uni0328
ENCODING 808
SWIDTH 0 0
DWIDTH 0 0
BBX 4 4 -2 -4
BITMAP
60
C0
C0
F0
ENDCHAR
STARTCHAR pi
ENCODING 960
SWIDTH 635 0
DWIDTH 11 0
BBX 10 9 1 0
BITMAP
FFC0
FF80
2200
2200
2200
6200
6200
6200
6380
ENDCHAR
STARTCHAR a.sups
ENCODING 7491
SWIDTH 366 0
DWIDTH 7 0
BBX 6 6 1 7
BITMAP
F0
98
38
D8
98
FC
ENDCHAR
STARTCHAR b.sups
ENCODING 7495
SWIDTH 411 0
DWIDTH 7 0
BBX 7 9 0 7
BITMAP
E0
60
60
7C
66
66
66
66
FC
ENDCHAR
STARTCHAR d.sups
ENCODING 7496
SWIDTH 406 0
DWIDTH 7 0
BBX 7 9 0 7
BITMAP
0C
0C
04
3C
64
C4
C4
64
7E
ENDCHAR
STARTCHAR e.sups
ENCODING 7497
SWIDTH 361 0
DWIDTH 7 0
BBX 6 6 0 7
BITMAP
38
6C
FC
C0
64
38
ENDCHAR
STARTCHAR g.sups
ENCODING 7501
SWIDTH 373 0
DWIDTH 7 0
BBX 6 8 0 5
BITMAP
7C
4C
4C
38
40
7C
C4
7C
ENDCHAR
STARTCHAR k.sups
ENCODING 7503
SWIDTH 394 0
DWIDTH 7 0
BBX 7 9 0 7
BITMAP
E0
60
60
6E
68
78
68
6C
FE
ENDCHAR
STARTCHAR m.sups
ENCODING 7504
SWIDTH 622 0
DWIDTH 11 0
BBX 11 6 0 7
BITMAP
7DC0
E6C0
6640
6640
6640
FEE0
ENDCHAR
STARTCHAR o.sups
ENCODING 7506
SWIDTH 388 0
DWIDTH 7 0
BBX 7 6 0 7
BITMAP
38
6C
C6
C6
6C
38
ENDCHAR
STARTCHAR p.sups
ENCODING 7510
SWIDTH 418 0
DWIDTH 8 0
BBX 7 8 0 5
BITMAP
7C
E6
66
66
66
7C
60
F0
ENDCHAR
STARTCHAR t.sups
ENCODING 7511
SWIDTH 245 0
DWIDTH 4 0
BBX 4 8 0 7
BITMAP
60
60
F0
60
60
60
60
70
ENDCHAR
STARTCHAR u.sups
ENCODING 7512
SWIDTH 413 0
DWIDTH 7 0
BBX 7 6 0 7
BITMAP
EC
64
64
64
6C
76
ENDCHAR
STARTCHAR v.sups
ENCODING 7515
SWIDTH 369 0
DWIDTH 7 0
BBX 7 6 0 7
BITMAP
EE
64
68
38
30
10
ENDCHAR
STARTCHAR c.sups
ENCODING 7580
SWIDTH 350 0
DWIDTH 6 0
BBX 6 6 0 7
BITMAP
38
6C
C4
C0
64
38
ENDCHAR
STARTCHAR f.sups
ENCODING 7584
SWIDTH 229 0
DWIDTH 4 0
BBX 5 9 0 7
BITMAP
38
28
60
F0
60
60
60
60
F0
ENDCHAR
STARTCHAR z.sups
ENCODING 7611
SWIDTH 328 0
DWIDTH 6 0
BBX 6 6 0 7
BITMAP
FC
98
30
30
6C
F8
ENDCHAR
STARTCHAR uni1E44
ENCODING 7748
SWIDTH 761 0
DWIDTH 14 0
BBX 13 16 0 0
BITMAP
0300
0300
0300
0000
78F8
3810
3C10
2E10
2710
2790
2390
21D0
20F0
2070
2070
F830
ENDCHAR
STARTCHAR uni1E45
ENCODING 7749
SWIDTH 624 0
DWIDTH 11 0
BBX 10 13 1 0
BITMAP
0C00
1E00
0C00
0000
6F00
F380
6380
6380
6380
6380
6380
6380
F7C0
ENDCHAR
STARTCHAR uni2007
ENCODING 8199
SWIDTH 528 0
DWIDTH 10 0
BBX 1 1 0 0
BITMAP
00
ENDCHAR
STARTCHAR figuredash
ENCODING 8210
SWIDTH 528 0
DWIDTH 10 0
BBX 8 1 1 4
BITMAP
FF
ENDCHAR
STARTCHAR endash
ENCODING 8211
SWIDTH 530 0
DWIDTH 10 0
BBX 8 1 1 4
BITMAP
FF
ENDCHAR
STARTCHAR emdash
ENCODING 8212
SWIDTH 830 0
DWIDTH 15 0
BBX 13 1 1 4
BITMAP
FFF8
ENDCHAR
STARTCHAR uni2015
ENCODING 8213
SWIDTH 830 0
DWIDTH 15 0
BBX 13 1 1 4
BITMAP
FFF8
ENDCHAR
STARTCHAR quoteleft
ENCODING 8216
SWIDTH 215 0
DWIDTH 4 0
BBX 2 6 1 7
BITMAP
40
80
80
C0
C0
80
ENDCHAR
STARTCHAR quoteright
ENCODING 8217
SWIDTH 215 0
DWIDTH 4 0
BBX 2 6 1 7
BITMAP
C0
C0
C0
40
80
80
ENDCHAR
STARTCHAR quotesinglbase
ENCODING 8218
SWIDTH 215 0
DWIDTH 4 0
BBX 2 6 1 -4
BITMAP
C0
C0
C0
40
80
80
ENDCHAR
STARTCHAR quotedblleft
ENCODING 8220
SWIDTH 430 0
DWIDTH 8 0
BBX 6 6 1 7
BITMAP
44
88
88
CC
CC
88
ENDCHAR
STARTCHAR quotedblright
ENCODING 8221
SWIDTH 430 0
DWIDTH 8 0
BBX 6 6 1 7
BITMAP
CC
CC
CC
44
88
90
ENDCHAR
STARTCHAR quotedblbase
ENCODING 8222
SWIDTH 430 0
DWIDTH 8 0
BBX 6 6 1 -4
BITMAP
CC
CC
CC
44
88
90
ENDCHAR
STARTCHAR dagger
ENCODING 8224
SWIDTH 538 0
DWIDTH 10 0
BBX 8 14 1 -1
BITMAP
18
18
18
F7
FF
18
18
18
18
18
18
18
10
10
ENDCHAR
STARTCHAR daggerdbl
ENCODING 8225
SWIDTH 538 0
DWIDTH 10 0
BBX 8 14 1 -1
BITMAP
18
18
18
F7
FF
18
18
18
18
F7
FF
18
18
18
ENDCHAR
STARTCHAR bullet
ENCODING 8226
SWIDTH 320 0
DWIDTH 6 0
BBX 4 5 1 3
BITMAP
E0
F0
F0
F0
E0
ENDCHAR
STARTCHAR ellipsis
ENCODING 8230
SWIDTH 960 0
DWIDTH 17 0
BBX 15 3 1 0
BITMAP
6186
E38E
6186
ENDCHAR
STARTCHAR perthousand
ENCODING 8240
SWIDTH 1215 0
DWIDTH 22 0
BBX 20 12 1 0
BITMAP
701000
D82000
984000
98C000
98B8E0
996DB0
DB4D30
724D30
044D30
084D30
186DB0
1038E0
ENDCHAR
STARTCHAR uni2032
ENCODING 8242
SWIDTH 257 0
DWIDTH 5 0
BBX 3 6 1 7
BITMAP
C0
E0
C0
C0
80
80
ENDCHAR
STARTCHAR uni2033
ENCODING 8243
SWIDTH 467 0
DWIDTH 8 0
BBX 7 6 1 7
BITMAP
CC
EE
CC
CC
88
88
ENDCHAR
STARTCHAR guilsinglleft
ENCODING 8249
SWIDTH 280 0
DWIDTH 5 0
BBX 4 7 1 1
BITMAP
20
70
C0
80
C0
60
30
ENDCHAR
STARTCHAR guilsinglright
ENCODING 8250
SWIDTH 280 0
DWIDTH 5 0
BBX 5 7 0 1
BITMAP
40
E0
30
18
30
60
C0
ENDCHAR
STARTCHAR fraction
ENCODING 8260
SWIDTH 140 0
DWIDTH 3 0
BBX 9 12 -3 0
BITMAP
0080
0100
0200
0600
0400
0800
1800
1000
2000
4000
C000
8000
ENDCHAR
STARTCHAR zero.sups
ENCODING 8304
SWIDTH 369 0
DWIDTH 7 0
BBX 5 8 1 7
BITMAP
70
D8
98
98
98
98
D8
70
ENDCHAR
STARTCHAR i.sups
ENCODING 8305
SWIDTH 212 0
DWIDTH 4 0
BBX 4 9 0 7
BITMAP
60
60
00
60
E0
60
60
60
F0
ENDCHAR
STARTCHAR four.sups
ENCODING 8308
SWIDTH 368 0
DWIDTH 7 0
BBX 6 8 0 7
BITMAP
08
18
28
48
48
FC
08
08
ENDCHAR
STARTCHAR five.sups
ENCODING 8309
SWIDTH 353 0
DWIDTH 6 0
BBX 6 8 0 7
BITMAP
7C
7C
40
78
0C
4C
CC
78
ENDCHAR
STARTCHAR six.sups
ENCODING 8310
SWIDTH 370 0
DWIDTH 7 0
BBX 5 8 1 7
BITMAP
30
60
C0
F8
98
98
D8
70
ENDCHAR
STARTCHAR seven.sups
ENCODING 8311
SWIDTH 337 0
DWIDTH 6 0
BBX 4 8 1 7
BITMAP
F0
F0
10
30
20
60
40
C0
ENDCHAR
STARTCHAR eight.sups
ENCODING 8312
SWIDTH 370 0
DWIDTH 7 0
BBX 5 8 1 7
BITMAP
70
98
D0
F0
F8
98
98
F0
ENDCHAR
STARTCHAR nine.sups
ENCODING 8313
SWIDTH 361 0
DWIDTH 7 0
BBX 6 8 0 7
BITMAP
38
4C
CC
4C
7C
0C
18
70
ENDCHAR
STARTCHAR parenleft.sups
ENCODING 8317
SWIDTH 252 0
DWIDTH 5 0
BBX 3 10 1 6
BITMAP
20
40
C0
80
80
80
80
C0
40
20
ENDCHAR
STARTCHAR parenright.sups
ENCODING 8318
SWIDTH 252 0
DWIDTH 5 0
BBX 3 10 1 6
BITMAP
80
C0
40
60
60
60
60
40
C0
80
ENDCHAR
STARTCHAR n.sups
ENCODING 8319
SWIDTH 425 0
DWIDTH 8 0
BBX 7 6 0 7
BITMAP
7C
E6
66
66
66
FE
ENDCHAR
STARTCHAR zero.subs
ENCODING 8320
SWIDTH 369 0
DWIDTH 7 0
BBX 5 8 1 -4
BITMAP
70
D8
98
98
98
98
D8
70
ENDCHAR
STARTCHAR one.subs
ENCODING 8321
SWIDTH 328 0
DWIDTH 6 0
BBX 4 8 1 -4
BITMAP
E0
E0
60
60
60
60
60
F0
ENDCHAR
STARTCHAR two.subs
ENCODING 8322
SWIDTH 358 0
DWIDTH 6 0
BBX 5 8 1 -4
BITMAP
70
90
98
30
20
40
F8
F8
ENDCHAR
STARTCHAR three.subs
ENCODING 8323
SWIDTH 357 0
DWIDTH 6 0
BBX 6 8 0 -4
BITMAP
38
4C
4C
38
18
4C
CC
78
ENDCHAR
STARTCHAR four.subs
ENCODING 8324
SWIDTH 368 0
DWIDTH 7 0
BBX 6 8 0 -4
BITMAP
08
18
28
48
48
FC
08
08
ENDCHAR
STARTCHAR five.subs
ENCODING 8325
SWIDTH 353 0
DWIDTH 6 0
BBX 6 8 0 -4
BITMAP
7C
7C
40
78
0C
4C
CC
78
ENDCHAR
STARTCHAR six.subs
ENCODING 8326
SWIDTH 370 0
DWIDTH 7 0
BBX 5 8 1 -4
BITMAP
30
60
C0
F8
98
98
D8
70
ENDCHAR
STARTCHAR seven.subs
ENCODING 8327
SWIDTH 337 0
DWIDTH 6 0
BBX 4 8 1 -4
BITMAP
F0
F0
10
30
20
60
40
C0
ENDCHAR
STARTCHAR eight.subs
ENCODING 8328
SWIDTH 370 0
DWIDTH 7 0
BBX 5 8 1 -4
BITMAP
70
98
D0
F0
F8
98
98
F0
ENDCHAR
STARTCHAR nine.subs
ENCODING 8329
SWIDTH 361 0
DWIDTH 7 0
BBX 6 8 0 -4
BITMAP
38
4C
CC
4C
7C
0C
18
70
ENDCHAR
STARTCHAR parenleft.subs
ENCODING 8333
SWIDTH 252 0
DWIDTH 5 0
BBX 3 10 1 -5
BITMAP
20
40
C0
80
80
80
80
C0
40
20
ENDCHAR
STARTCHAR parenright.subs
ENCODING 8334
SWIDTH 252 0
DWIDTH 5 0
BBX 3 10 1 -5
BITMAP
80
C0
40
60
60
60
60
40
C0
80
ENDCHAR
STARTCHAR Euro
ENCODING 8364
SWIDTH 528 0
DWIDTH 10 0
BBX 9 12 0 0
BITMAP
0F00
1980
3180
7000
FE00
7000
7000
FE00
7000
3180
3980
0F00
ENDCHAR
STARTCHAR uni20B9
ENCODING 8377
SWIDTH 528 0
DWIDTH 10 0
BBX 8 11 1 0
BITMAP
FF
1C
FF
0C
1C
F0
18
1C
1C
0C
0F
ENDCHAR
STARTCHAR uni20BA
ENCODING 8378
SWIDTH 528 0
DWIDTH 10 0
BBX 9 12 0 0
BITMAP
FC00
3200
3600
3800
7200
BC00
3000
F180
B180
3100
3300
3C00
ENDCHAR
STARTCHAR uni2113
ENCODING 8467
SWIDTH 562 0
DWIDTH 10 0
BBX 9 13 0 0
BITMAP
0F00
1B00
3380
3380
3380
3300
3600
3E00
3800
3000
F800
1880
0F00
ENDCHAR
STARTCHAR uni2117
ENCODING 8471
SWIDTH 748 0
DWIDTH 13 0
BBX 12 12 1 0
BITMAP
1F00
20C0
4060
9F20
8D90
8D90
8F10
8C10
8C20
5E60
20C0
1F00
ENDCHAR
STARTCHAR uni2120
ENCODING 8480
SWIDTH 705 0
DWIDTH 13 0
BBX 11 5 1 7
BITMAP
EC60
A6E0
EAE0
BB60
EDE0
ENDCHAR
STARTCHAR trademark
ENCODING 8482
SWIDTH 761 0
DWIDTH 14 0
BBX 12 5 1 7
BITMAP
FE30
EB70
6570
65B0
66F0
ENDCHAR
STARTCHAR uni2126
ENCODING 8486
SWIDTH 818 0
DWIDTH 15 0
BBX 15 12 0 0
BITMAP
07C0
1C70
3830
3038
3038
3038
3838
3838
1870
CC76
C6E4
FEFC
ENDCHAR
STARTCHAR estimated
ENCODING 8494
SWIDTH 800 0
DWIDTH 14 0
BBX 13 12 1 0
BITMAP
0F80
3040
4020
C030
C030
C030
FFF8
C000
C000
4000
3060
0F80
ENDCHAR
STARTCHAR onethird
ENCODING 8531
SWIDTH 880 0
DWIDTH 16 0
BBX 14 12 1 0
BITMAP
E010
E020
6040
60C0
60B8
614C
634C
F238
0418
084C
18CC
1078
ENDCHAR
STARTCHAR twothirds
ENCODING 8532
SWIDTH 880 0
DWIDTH 16 0
BBX 14 12 1 0
BITMAP
7010
9020
9840
30C0
20B8
414C
FB4C
FA38
0418
084C
18CC
1078
ENDCHAR
STARTCHAR oneeighth
ENCODING 8539
SWIDTH 880 0
DWIDTH 16 0
BBX 14 12 1 0
BITMAP
E010
E020
6040
60C0
60B8
614C
6368
F278
047C
084C
184C
1078
ENDCHAR
STARTCHAR threeeighths
ENCODING 8540
SWIDTH 880 0
DWIDTH 16 0
BBX 15 12 0 0
BITMAP
3808
4C10
4C20
3860
185C
4CA6
CDB4
793C
023E
0426
0C26
083C
ENDCHAR
STARTCHAR fiveeighths
ENCODING 8541
SWIDTH 880 0
DWIDTH 16 0
BBX 15 12 0 0
BITMAP
7C08
7C10
4020
7860
0C5C
4CA6
CDB4
793C
023E
0426
0C26
083C
ENDCHAR
STARTCHAR seveneighths
ENCODING 8542
SWIDTH 880 0
DWIDTH 16 0
BBX 13 12 2 0
BITMAP
F040
F080
1100
3300
2270
6498
4CD0
C8F0
10F8
2098
6098
40F0
ENDCHAR
STARTCHAR uni2190
ENCODING 8592
SWIDTH 720 0
DWIDTH 13 0
BBX 11 11 1 -1
BITMAP
0400
0C00
1800
3000
E000
FFE0
E000
3000
1800
0C00
0400
ENDCHAR
STARTCHAR arrowup
ENCODING 8593
SWIDTH 720 0
DWIDTH 13 0
BBX 11 12 1 -1
BITMAP
0400
0E00
1F00
3580
64C0
C460
8440
0400
0400
0400
0400
0400
ENDCHAR
STARTCHAR uni2192
ENCODING 8594
SWIDTH 720 0
DWIDTH 13 0
BBX 11 11 1 -1
BITMAP
0400
0600
0300
0180
00C0
FFE0
00C0
0180
0300
0600
0400
ENDCHAR
STARTCHAR arrowdown
ENCODING 8595
SWIDTH 720 0
DWIDTH 13 0
BBX 11 12 1 -1
BITMAP
0400
0400
0400
0400
0400
8440
C460
64C0
3580
1F00
0E00
0400
ENDCHAR
STARTCHAR uni2196
ENCODING 8598
SWIDTH 720 0
DWIDTH 13 0
BBX 9 10 2 -1
BITMAP
8000
FF00
E000
F000
D800
CC00
C600
8300
8180
0100
ENDCHAR
STARTCHAR uni2197
ENCODING 8599
SWIDTH 720 0
DWIDTH 13 0
BBX 9 10 2 -1
BITMAP
0080
7F80
0380
0780
0D80
1980
3180
6180
C180
8000
ENDCHAR
STARTCHAR uni2198
ENCODING 8600
SWIDTH 720 0
DWIDTH 13 0
BBX 9 10 2 -1
BITMAP
8000
C180
6180
3180
1980
0D80
0780
0380
7F80
0080
ENDCHAR
STARTCHAR uni2199
ENCODING 8601
SWIDTH 720 0
DWIDTH 13 0
BBX 9 10 2 -1
BITMAP
0100
8180
8300
C600
CC00
D800
F000
E000
FF00
8000
ENDCHAR
STARTCHAR partialdiff
ENCODING 8706
SWIDTH 567 0
DWIDTH 10 0
BBX 9 12 1 0
BITMAP
1E00
6300
0300
0380
0380
3F80
6380
E380
C300
C300
E600
7C00
ENDCHAR
STARTCHAR uni2206
ENCODING 8710
SWIDTH 579 0
DWIDTH 10 0
BBX 10 12 0 0
BITMAP
0C00
0C00
0E00
1600
1600
1700
2300
2380
6380
4180
41C0
FFC0
ENDCHAR
STARTCHAR product
ENCODING 8719
SWIDTH 831 0
DWIDTH 15 0
BBX 13 14 1 -2
BITMAP
FFF8
7070
7070
7070
7070
7070
7070
7070
7070
7070
7070
7070
7070
FDF8
ENDCHAR
STARTCHAR summation
ENCODING 8721
SWIDTH 570 0
DWIDTH 10 0
BBX 10 14 0 -2
BITMAP
FF80
7080
70C0
3800
1C00
1C00
0E00
0400
0800
1800
30C0
60C0
7FC0
7FC0
ENDCHAR
STARTCHAR minus
ENCODING 8722
SWIDTH 530 0
DWIDTH 10 0
BBX 8 1 1 5
BITMAP
FF
ENDCHAR
STARTCHAR uni2215
ENCODING 8725
SWIDTH 140 0
DWIDTH 3 0
BBX 9 12 -3 0
BITMAP
0080
0100
0200
0600
0400
0800
1800
1000
2000
4000
C000
8000
ENDCHAR
STARTCHAR uni2219
ENCODING 8729
SWIDTH 300 0
DWIDTH 5 0
BBX 3 3 1 5
BITMAP
60
E0
60
ENDCHAR
STARTCHAR radical
ENCODING 8730
SWIDTH 578 0
DWIDTH 10 0
BBX 9 15 1 -2
BITMAP
0180
0180
0180
0100
0100
0300
0300
E200
2200
3200
3600
1C00
1C00
1C00
0C00
ENDCHAR
STARTCHAR infinity
ENCODING 8734
SWIDTH 815 0
DWIDTH 15 0
BBX 13 6 1 3
BITMAP
78F0
8D18
8608
8708
8988
70F0
ENDCHAR
STARTCHAR integral
ENCODING 8747
SWIDTH 438 0
DWIDTH 8 0
BBX 10 17 -1 -3
BITMAP
0380
05C0
0C00
0C00
0C00
0C00
0C00
0C00
0C00
0C00
0C00
0C00
0C00
0C00
0C00
C800
7000
ENDCHAR
STARTCHAR approxequal
ENCODING 8776
SWIDTH 530 0
DWIDTH 10 0
BBX 8 7 1 3
BITMAP
61
9B
8E
00
61
9B
8E
ENDCHAR
STARTCHAR notequal
ENCODING 8800
SWIDTH 530 0
DWIDTH 10 0
BBX 8 10 1 1
BITMAP
02
06
04
FF
18
10
FF
60
40
80
ENDCHAR
STARTCHAR lessequal
ENCODING 8804
SWIDTH 530 0
DWIDTH 10 0
BBX 8 10 1 0
BITMAP
06
1D
70
C0
E0
38
0E
03
00
FF
ENDCHAR
STARTCHAR greaterequal
ENCODING 8805
SWIDTH 530 0
DWIDTH 10 0
BBX 8 10 1 0
BITMAP
E0
70
1C
07
0E
3C
F0
40
00
FF
ENDCHAR
STARTCHAR uni25A0
ENCODING 9632
SWIDTH 720 0
DWIDTH 13 0
BBX 11 11 1 0
BITMAP
FFE0
FFE0
FFE0
FFE0
FFE0
FFE0
FFE0
FFE0
FFE0
FFE0
FFE0
ENDCHAR
STARTCHAR triagup
ENCODING 9650
SWIDTH 600 0
DWIDTH 11 0
BBX 11 9 0 0
BITMAP
0400
0E00
0E00
1F00
1F00
3F80
7F80
7FC0
FFE0
ENDCHAR
STARTCHAR uni25B3
ENCODING 9651
SWIDTH 600 0
DWIDTH 11 0
BBX 11 9 0 1
BITMAP
0400
0C00
0E00
1B00
1300
3180
6080
60C0
FFE0
ENDCHAR
STARTCHAR uni25B6
ENCODING 9654
SWIDTH 600 0
DWIDTH 11 0
BBX 9 10 1 0
BITMAP
C000
E000
F800
FE00
FF80
FF80
FE00
F800
E000
C000
ENDCHAR
STARTCHAR uni25B7
ENCODING 9655
SWIDTH 600 0
DWIDTH 11 0
BBX 9 10 1 0
BITMAP
C000
E000
D800
CE00
C380
C380
CE00
D800
E000
C000
ENDCHAR
STARTCHAR triagdn
ENCODING 9660
SWIDTH 600 0
DWIDTH 11 0
BBX 11 9 0 0
BITMAP
FFE0
7FC0
7F80
3F80
1F00
1F00
0E00
0E00
0400
ENDCHAR
STARTCHAR uni25BD
ENCODING 9661
SWIDTH 600 0
DWIDTH 11 0
BBX 11 9 0 0
BITMAP
FFE0
60C0
6080
3180
1100
1B00
0E00
0C00
0400
ENDCHAR
STARTCHAR uni25C0
ENCODING 9664
SWIDTH 600 0
DWIDTH 11 0
BBX 8 10 1 0
BITMAP
01
07
0F
3F
FF
FF
3F
0F
07
01
ENDCHAR
STARTCHAR uni25C1
ENCODING 9665
SWIDTH 600 0
DWIDTH 11 0
BBX 8 10 1 0
BITMAP
01
07
0D
31
E1
E1
31
0D
07
01
ENDCHAR
STARTCHAR uni25C6
ENCODING 9670
SWIDTH 748 0
DWIDTH 13 0
BBX 13 13 0 -1
BITMAP
0200
0700
0F80
1FC0
3FE0
7FF0
FFF8
7FF0
3FE0
1FC0
0F80
0700
0200
ENDCHAR
STARTCHAR uni25C9
ENCODING 9673
SWIDTH 485 0
DWIDTH 9 0
BBX 7 7 1 2
BITMAP
38
C4
BA
BA
BA
C4
38
ENDCHAR
STARTCHAR lozenge
ENCODING 9674
SWIDTH 600 0
DWIDTH 11 0
BBX 9 14 1 -1
BITMAP
0800
1C00
1400
3600
6200
4300
C180
C180
4300
6200
3600
1400
1C00
0800
ENDCHAR
STARTCHAR uni2610
ENCODING 9744
SWIDTH 807 0
DWIDTH 15 0
BBX 12 12 1 -1
BITMAP
FFF0
8010
8010
8010
8010
8010
8010
8010
8010
8010
8010
FFF0
ENDCHAR
STARTCHAR uni2611
ENCODING 9745
SWIDTH 800 0
DWIDTH 14 0
BBX 12 17 1 -1
BITMAP
0020
0010
0020
0020
0060
FFF0
80D0
9090
9890
9990
8D10
8F10
8710
8610
8210
8010
FFF0
ENDCHAR
STARTCHAR musicalnote
ENCODING 9834
SWIDTH 545 0
DWIDTH 10 0
BBX 9 13 0 0
BITMAP
0C00
0C00
0E00
0F00
0F80
0D80
0C80
0C80
0C80
3C00
7C00
F800
7000
ENDCHAR
STARTCHAR uni2713
ENCODING 10003
SWIDTH 647 0
DWIDTH 12 0
BBX 9 15 2 0
BITMAP
0100
0080
0100
0100
0300
0200
0600
0400
C400
CC00
6800
6800
3800
3000
1000
ENDCHAR
STARTCHAR uni2752
ENCODING 10066
SWIDTH 940 0
DWIDTH 17 0
BBX 15 14 1 -1
BITMAP
1FFE
7FFE
FFFE
800E
800E
800E
800E
800E
800E
800E
800E
800C
800C
FFF8
ENDCHAR
STARTCHAR f_i
ENCODING 64257
SWIDTH 624 0
DWIDTH 11 0
BBX 10 13 1 0
BITMAP
1F00
3380
6180
6000
FF80
6380
6380
6380
6380
6380
6380
6380
F7C0
ENDCHAR
STARTCHAR f_l
ENCODING 64258
SWIDTH 629 0
DWIDTH 11 0
BBX 10 13 1 0
BITMAP
1F80
3780
6380
6380
FB80
6380
6380
6380
6380
6380
6380
6380
F7C0
ENDCHAR
STARTCHAR .notdef
ENCODING -1
SWIDTH 636 0
DWIDTH 11 0
BBX 9 12 1 0
BITMAP
FF80
C180
E280
D280
D480
CC80
CC80
D480
D280
E280
C180
FF80
ENDCHAR
STARTCHAR i.trk
ENCODING -1
SWIDTH 309 0
DWIDTH 6 0
BBX 4 13 1 0
BITMAP
60
E0
00
00
20
E0
60
60
60
60
60
60
F0
ENDCHAR
STARTCHAR f_t
ENCODING -1
SWIDTH 681 0
DWIDTH 12 0
BBX 11 13 1 0
BITMAP
1E00
3600
6180
6180
FFE0
6380
6380
6380
6380
6380
6380
63A0
F9E0
ENDCHAR
STARTCHAR zero.slash
ENCODING -1
SWIDTH 528 0
DWIDTH 10 0
BBX 8 12 1 0
BITMAP
3C
66
C6
CF
CF
D7
D7
D7
E7
E6
66
3C
ENDCHAR
STARTCHAR zero.lf
ENCODING -1
SWIDTH 535 0
DWIDTH 10 0
BBX 8 12 1 0
BITMAP
3C
66
C6
C7
C7
C7
C7
C7
C7
C6
66
3C
ENDCHAR
STARTCHAR one.lf
ENCODING -1
SWIDTH 400 0
DWIDTH 7 0
BBX 6 12 1 0
BITMAP
30
F0
30
30
30
30
30
30
30
30
30
FC
ENDCHAR
STARTCHAR two.lf
ENCODING -1
SWIDTH 513 0
DWIDTH 9 0
BBX 8 12 1 0
BITMAP
7C
CE
C6
86
0E
0C
18
10
20
40
FF
FF
ENDCHAR
STARTCHAR three.lf
ENCODING -1
SWIDTH 510 0
DWIDTH 9 0
BBX 9 12 0 0
BITMAP
3E00
6700
6300
4300
0600
1C00
0700
0300
4380
E300
6700
3E00
ENDCHAR
STARTCHAR four.lf
ENCODING -1
SWIDTH 524 0
DWIDTH 9 0
BBX 9 12 0 0
BITMAP
0700
0700
0F00
1700
3700
2700
4700
FF80
FF80
0700
0700
0700
ENDCHAR
STARTCHAR five.lf
ENCODING -1
SWIDTH 506 0
DWIDTH 9 0
BBX 9 12 0 0
BITMAP
3F00
3F00
2000
2000
3E00
0700
0300
0380
4380
E300
6700
3E00
ENDCHAR
STARTCHAR six.lf
ENCODING -1
SWIDTH 528 0
DWIDTH 10 0
BBX 8 12 1 0
BITMAP
0E
18
70
60
E0
DE
E7
C3
C3
E3
66
3C
ENDCHAR
STARTCHAR seven.lf
ENCODING -1
SWIDTH 461 0
DWIDTH 8 0
BBX 8 12 0 0
BITMAP
FF
FF
02
02
06
04
0C
0C
18
18
30
70
ENDCHAR
STARTCHAR eight.lf
ENCODING -1
SWIDTH 508 0
DWIDTH 9 0
BBX 8 12 1 0
BITMAP
3C
46
C6
C6
E4
78
7E
CE
C7
C7
C6
7C
ENDCHAR
STARTCHAR nine.lf
ENCODING -1
SWIDTH 519 0
DWIDTH 9 0
BBX 9 12 0 0
BITMAP
3E00
6300
6300
E380
6380
6380
3F80
0300
0700
0600
1C00
3000
ENDCHAR
STARTCHAR zero.lfslash
ENCODING -1
SWIDTH 535 0
DWIDTH 10 0
BBX 8 12 1 0
BITMAP
3C
66
C6
CF
CF
D7
D7
D7
E7
E6
66
3C
ENDCHAR
STARTCHAR zero.tosf
ENCODING -1
SWIDTH 528 0
DWIDTH 10 0
BBX 8 9 1 0
BITMAP
3C
66
C7
C7
C3
C7
C7
66
3C
ENDCHAR
STARTCHAR one.tosf
ENCODING -1
SWIDTH 528 0
DWIDTH 10 0
BBX 7 9 1 0
BITMAP
18
78
18
18
18
18
18
18
FE
ENDCHAR
STARTCHAR two.tosf
ENCODING -1
SWIDTH 528 0
DWIDTH 10 0
BBX 8 9 1 0
BITMAP
3C
6E
C6
C6
0C
18
20
FF
FF
ENDCHAR
STARTCHAR three.tosf
ENCODING -1
SWIDTH 528 0
DWIDTH 10 0
BBX 8 11 1 -2
BITMAP
3C
4E
C6
86
0E
38
06
87
C7
C6
7C
ENDCHAR
STARTCHAR four.tosf
ENCODING -1
SWIDTH 528 0
DWIDTH 10 0
BBX 9 11 0 -2
BITMAP
0600
0600
0E00
1600
3600
2600
4600
FF80
FF80
0600
0600
ENDCHAR
STARTCHAR five.tosf
ENCODING -1
SWIDTH 528 0
DWIDTH 10 0
BBX 8 11 1 -2
BITMAP
7E
7E
40
40
7C
06
07
87
C7
C6
7C
ENDCHAR
STARTCHAR six.tosf
ENCODING -1
SWIDTH 528 0
DWIDTH 10 0
BBX 8 12 1 0
BITMAP
0E
38
70
60
C0
FE
C7
C7
C3
C7
66
3C
ENDCHAR
STARTCHAR seven.tosf
ENCODING -1
SWIDTH 528 0
DWIDTH 10 0
BBX 8 11 1 -2
BITMAP
FF
FE
02
06
0C
0C
18
18
30
30
70
ENDCHAR
STARTCHAR eight.tosf
ENCODING -1
SWIDTH 528 0
DWIDTH 10 0
BBX 8 12 1 0
BITMAP
3C
66
C6
C6
74
7C
7E
C7
C3
C3
C6
7C
ENDCHAR
STARTCHAR nine.tosf
ENCODING -1
SWIDTH 528 0
DWIDTH 10 0
BBX 8 11 1 -2
BITMAP
3C
E6
C7
C7
C7
E7
7F
06
0C
18
60
ENDCHAR
STARTCHAR zero.osf
ENCODING -1
SWIDTH 565 0
DWIDTH 10 0
BBX 8 9 1 0
BITMAP
3C
66
C3
C3
C3
C3
C3
66
3C
ENDCHAR
STARTCHAR one.osf
ENCODING -1
SWIDTH 416 0
DWIDTH 7 0
BBX 6 9 1 0
BITMAP
30
F0
30
30
30
30
30
30
FC
ENDCHAR
STARTCHAR two.osf
ENCODING -1
SWIDTH 513 0
DWIDTH 9 0
BBX 8 9 1 0
BITMAP
7C
CE
C6
C6
0C
10
60
FF
FF
ENDCHAR
STARTCHAR three.osf
ENCODING -1
SWIDTH 510 0
DWIDTH 9 0
BBX 9 11 0 -2
BITMAP
3E00
6700
6300
4300
0600
1C00
0700
4380
E380
6700
3E00
ENDCHAR
STARTCHAR four.osf
ENCODING -1
SWIDTH 524 0
DWIDTH 9 0
BBX 9 11 0 -2
BITMAP
0700
0700
0F00
1700
3700
2700
4700
FF80
FF80
0700
0700
ENDCHAR
STARTCHAR five.osf
ENCODING -1
SWIDTH 506 0
DWIDTH 9 0
BBX 9 11 0 -2
BITMAP
3F00
3F00
2000
2000
3E00
0700
0380
4380
E300
6700
3E00
ENDCHAR
STARTCHAR six.osf
ENCODING -1
SWIDTH 528 0
DWIDTH 10 0
BBX 8 12 1 0
BITMAP
0E
18
70
60
E0
DE
E7
C3
C3
E3
66
3C
ENDCHAR
STARTCHAR seven.osf
ENCODING -1
SWIDTH 461 0
DWIDTH 8 0
BBX 8 11 0 -2
BITMAP
FF
FF
02
06
06
0C
0C
18
18
38
70
ENDCHAR
STARTCHAR eight.osf
ENCODING -1
SWIDTH 508 0
DWIDTH 9 0
BBX 8 12 1 0
BITMAP
3C
46
C6
C6
E4
78
7E
CE
C7
C7
C6
7C
ENDCHAR
STARTCHAR nine.osf
ENCODING -1
SWIDTH 519 0
DWIDTH 9 0
BBX 9 11 0 -2
BITMAP
3E00
6300
6300
E380
6380
6380
3F00
0300
0600
1C00
3000
ENDCHAR
STARTCHAR exclamdown.cap
ENCODING -1
SWIDTH 328 0
DWIDTH 6 0
BBX 3 12 1 0
BITMAP
60
E0
60
00
40
60
60
60
60
60
E0
60
ENDCHAR
STARTCHAR questiondown.cap
ENCODING -1
SWIDTH 471 0
DWIDTH 8 0
BBX 6 12 1 0
BITMAP
1C
1C
1C
00
00
08
38
F8
E0
C0
7C
1C
ENDCHAR
STARTCHAR guilsinglleft.cap
ENCODING -1
SWIDTH 280 0
DWIDTH 5 0
BBX 4 7 1 2
BITMAP
20
70
C0
80
C0
60
30
ENDCHAR
STARTCHAR guilsinglright.cap
ENCODING -1
SWIDTH 280 0
DWIDTH 5 0
BBX 5 7 0 2
BITMAP
40
E0
30
18
30
60
C0
ENDCHAR
STARTCHAR guillemotleft.cap
ENCODING -1
SWIDTH 459 0
DWIDTH 8 0
BBX 8 7 1 2
BITMAP
22
77
CC
88
CC
66
33
ENDCHAR
STARTCHAR guillemotright.cap
ENCODING -1
SWIDTH 459 0
DWIDTH 8 0
BBX 9 7 0 2
BITMAP
4400
EE00
3300
1980
3300
6600
CC00
ENDCHAR
STARTCHAR hyphen.cap
ENCODING -1
SWIDTH 330 0
DWIDTH 6 0
BBX 4 1 1 5
BITMAP
F0
ENDCHAR
STARTCHAR sfthyphen.cap
ENCODING -1
SWIDTH 330 0
DWIDTH 6 0
BBX 4 1 1 5
BITMAP
F0
ENDCHAR
STARTCHAR endash.cap
ENCODING -1
SWIDTH 530 0
DWIDTH 10 0
BBX 8 1 1 5
BITMAP
FF
ENDCHAR
STARTCHAR emdash.cap
ENCODING -1
SWIDTH 830 0
DWIDTH 15 0
BBX 13 1 1 5
BITMAP
FFF8
ENDCHAR
STARTCHAR horizontalbar.cap
ENCODING -1
SWIDTH 830 0
DWIDTH 15 0
BBX 13 1 1 5
BITMAP
FFF8
ENDCHAR
STARTCHAR parenleft.cap
ENCODING -1
SWIDTH 365 0
DWIDTH 7 0
BBX 5 16 1 -2
BITMAP
08
10
30
60
60
E0
C0
C0
C0
C0
E0
60
60
30
10
18
ENDCHAR
STARTCHAR parenright.cap
ENCODING -1
SWIDTH 365 0
DWIDTH 7 0
BBX 4 16 1 -2
BITMAP
80
C0
60
60
30
30
30
30
30
30
30
30
60
60
C0
80
ENDCHAR
STARTCHAR bracketleft.cap
ENCODING -1
SWIDTH 339 0
DWIDTH 6 0
BBX 4 16 2 -2
BITMAP
F0
C0
C0
C0
C0
C0
C0
C0
C0
C0
C0
C0
C0
C0
C0
F0
ENDCHAR
STARTCHAR bracketright.cap
ENCODING -1
SWIDTH 339 0
DWIDTH 6 0
BBX 4 16 0 -2
BITMAP
F0
30
30
30
30
30
30
30
30
30
30
30
30
30
30
F0
ENDCHAR
STARTCHAR braceleft.cap
ENCODING -1
SWIDTH 339 0
DWIDTH 6 0
BBX 5 16 1 -2
BITMAP
38
60
60
60
60
20
60
C0
60
20
20
60
60
60
60
38
ENDCHAR
STARTCHAR braceright.cap
ENCODING -1
SWIDTH 339 0
DWIDTH 6 0
BBX 4 16 1 -2
BITMAP
C0
60
60
60
60
40
60
10
60
40
60
60
60
60
60
C0
ENDCHAR
STARTCHAR at.cap
ENCODING -1
SWIDTH 929 0
DWIDTH 17 0
BBX 15 15 1 -2
BITMAP
07E0
1C18
300C
63E6
4666
CC66
8C66
8CE6
8CC4
8CCC
CF78
C000
6000
3040
0FE0
ENDCHAR
STARTCHAR period.sups
ENCODING -1
SWIDTH 219 0
DWIDTH 4 0
BBX 2 1 1 7
BITMAP
C0
ENDCHAR
STARTCHAR comma.sups
ENCODING -1
SWIDTH 207 0
DWIDTH 4 0
BBX 2 4 1 5
BITMAP
C0
C0
40
80
ENDCHAR
STARTCHAR colon.sups
ENCODING -1
SWIDTH 219 0
DWIDTH 4 0
BBX 2 5 1 7
BITMAP
C0
00
00
00
C0
ENDCHAR
STARTCHAR hyphen.sups
ENCODING -1
SWIDTH 241 0
DWIDTH 4 0
BBX 3 1 1 10
BITMAP
E0
ENDCHAR
STARTCHAR endash.sups
ENCODING -1
SWIDTH 371 0
DWIDTH 7 0
BBX 5 1 1 10
BITMAP
F8
ENDCHAR
STARTCHAR emdash.sups
ENCODING -1
SWIDTH 566 0
DWIDTH 10 0
BBX 9 1 1 10
BITMAP
FF80
ENDCHAR
STARTCHAR period.subs
ENCODING -1
SWIDTH 219 0
DWIDTH 4 0
BBX 2 1 1 -4
BITMAP
C0
ENDCHAR
STARTCHAR comma.subs
ENCODING -1
SWIDTH 207 0
DWIDTH 4 0
BBX 2 4 1 -6
BITMAP
C0
C0
40
80
ENDCHAR
STARTCHAR zero.dnom
ENCODING -1
SWIDTH 369 0
DWIDTH 7 0
BBX 5 8 1 0
BITMAP
70
D8
98
98
98
98
D8
70
ENDCHAR
STARTCHAR one.dnom
ENCODING -1
SWIDTH 328 0
DWIDTH 6 0
BBX 4 8 1 0
BITMAP
E0
E0
60
60
60
60
60
F0
ENDCHAR
STARTCHAR two.dnom
ENCODING -1
SWIDTH 358 0
DWIDTH 6 0
BBX 5 8 1 0
BITMAP
70
90
98
30
20
40
F8
F8
ENDCHAR
STARTCHAR three.dnom
ENCODING -1
SWIDTH 357 0
DWIDTH 6 0
BBX 6 8 0 0
BITMAP
38
4C
4C
38
18
4C
CC
78
ENDCHAR
STARTCHAR four.dnom
ENCODING -1
SWIDTH 368 0
DWIDTH 7 0
BBX 6 8 0 0
BITMAP
08
18
28
48
48
FC
08
08
ENDCHAR
STARTCHAR five.dnom
ENCODING -1
SWIDTH 353 0
DWIDTH 6 0
BBX 6 8 0 0
BITMAP
7C
7C
40
78
0C
4C
CC
78
ENDCHAR
STARTCHAR six.dnom
ENCODING -1
SWIDTH 370 0
DWIDTH 7 0
BBX 5 8 1 0
BITMAP
30
60
C0
F8
98
98
D8
70
ENDCHAR
STARTCHAR seven.dnom
ENCODING -1
SWIDTH 337 0
DWIDTH 6 0
BBX 4 8 1 0
BITMAP
F0
F0
10
30
20
60
40
C0
ENDCHAR
STARTCHAR eight.dnom
ENCODING -1
SWIDTH 370 0
DWIDTH 7 0
BBX 5 8 1 0
BITMAP
70
98
D0
F0
F8
98
98
F0
ENDCHAR
STARTCHAR nine.dnom
ENCODING -1
SWIDTH 361 0
DWIDTH 7 0
BBX 6 8 0 0
BITMAP
38
4C
CC
4C
7C
0C
18
70
ENDCHAR
STARTCHAR parenleft.dnom
ENCODING -1
SWIDTH 252 0
DWIDTH 5 0
BBX 3 10 1 -1
BITMAP
20
40
C0
80
80
80
80
C0
40
20
ENDCHAR
STARTCHAR parenright.dnom
ENCODING -1
SWIDTH 252 0
DWIDTH 5 0
BBX 3 10 1 -1
BITMAP
80
C0
40
60
60
60
60
40
C0
80
ENDCHAR
STARTCHAR period.dnom
ENCODING -1
SWIDTH 219 0
DWIDTH 4 0
BBX 2 1 1 0
BITMAP
C0
ENDCHAR
STARTCHAR comma.dnom
ENCODING -1
SWIDTH 207 0
DWIDTH 4 0
BBX 2 4 1 -2
BITMAP
C0
C0
40
80
ENDCHAR
STARTCHAR zero.numr
ENCODING -1
SWIDTH 369 0
DWIDTH 7 0
BBX 5 8 1 4
BITMAP
70
D8
98
98
98
98
D8
70
ENDCHAR
STARTCHAR one.numr
ENCODING -1
SWIDTH 328 0
DWIDTH 6 0
BBX 4 8 1 4
BITMAP
E0
E0
60
60
60
60
60
F0
ENDCHAR
STARTCHAR two.numr
ENCODING -1
SWIDTH 358 0
DWIDTH 6 0
BBX 5 8 1 4
BITMAP
70
90
98
30
20
40
F8
F8
ENDCHAR
STARTCHAR three.numr
ENCODING -1
SWIDTH 357 0
DWIDTH 6 0
BBX 6 8 0 4
BITMAP
38
4C
4C
38
18
4C
CC
78
ENDCHAR
STARTCHAR four.numr
ENCODING -1
SWIDTH 368 0
DWIDTH 7 0
BBX 6 8 0 4
BITMAP
08
18
28
48
48
FC
08
08
ENDCHAR
STARTCHAR five.numr
ENCODING -1
SWIDTH 353 0
DWIDTH 6 0
BBX 6 8 0 4
BITMAP
7C
7C
40
78
0C
4C
CC
78
ENDCHAR
STARTCHAR six.numr
ENCODING -1
SWIDTH 370 0
DWIDTH 7 0
BBX 5 8 1 4
BITMAP
30
60
C0
F8
98
98
D8
70
ENDCHAR
STARTCHAR seven.numr
ENCODING -1
SWIDTH 337 0
DWIDTH 6 0
BBX 4 8 1 4
BITMAP
F0
F0
10
30
20
60
40
C0
ENDCHAR
STARTCHAR eight.numr
ENCODING -1
SWIDTH 370 0
DWIDTH 7 0
BBX 5 8 1 4
BITMAP
70
98
D0
F0
F8
98
98
F0
ENDCHAR
STARTCHAR nine.numr
ENCODING -1
SWIDTH 361 0
DWIDTH 7 0
BBX 6 8 0 4
BITMAP
38
4C
CC
4C
7C
0C
18
70
ENDCHAR
STARTCHAR parenleft.numr
ENCODING -1
SWIDTH 252 0
DWIDTH 5 0
BBX 3 10 1 3
BITMAP
20
40
C0
80
80
80
80
C0
40
20
ENDCHAR
STARTCHAR parenright.numr
ENCODING -1
SWIDTH 252 0
DWIDTH 5 0
BBX 3 10 1 3
BITMAP
80
C0
40
60
60
60
60
40
C0
80
ENDCHAR
STARTCHAR period.numr
ENCODING -1
SWIDTH 219 0
DWIDTH 4 0
BBX 2 1 1 4
BITMAP
C0
ENDCHAR
STARTCHAR comma.numr
ENCODING -1
SWIDTH 207 0
DWIDTH 4 0
BBX 2 4 1 2
BITMAP
C0
C0
40
80
ENDCHAR
STARTCHAR q.sups
ENCODING -1
SWIDTH 401 0
DWIDTH 7 0
BBX 7 8 0 5
BITMAP
3C
64
C4
C4
64
7C
04
0E
ENDCHAR
STARTCHAR egrave.sups
ENCODING -1
SWIDTH 361 0
DWIDTH 7 0
BBX 6 9 0 7
BITMAP
30
10
00
38
6C
FC
C0
64
38
ENDCHAR
STARTCHAR eacute.sups
ENCODING -1
SWIDTH 361 0
DWIDTH 7 0
BBX 6 9 0 7
BITMAP
18
10
00
38
6C
FC
C0
64
38
ENDCHAR
STARTCHAR slash.frac
ENCODING -1
SWIDTH 140 0
DWIDTH 3 0
BBX 9 12 -3 0
BITMAP
0080
0100
0200
0600
0400
0800
1800
1000
2000
4000
C000
8000
ENDCHAR
STARTCHAR space.frac
ENCODING -1
SWIDTH 120 0
DWIDTH 2 0
BBX 1 1 0 0
BITMAP
00
ENDCHAR
STARTCHAR uni00A0.frac
ENCODING -1
SWIDTH 120 0
DWIDTH 2 0
BBX 1 1 0 0
BITMAP
00
ENDCHAR
STARTCHAR caron.alt
ENCODING -1
SWIDTH 20 0
DWIDTH 0 0
BBX 2 4 0 9
BITMAP
C0
C0
80
80
ENDCHAR
STARTCHAR commabelowcmb.alt
ENCODING -1
SWIDTH 0 0
DWIDTH 0 0
BBX 3 4 -1 10
BITMAP
60
80
C0
C0
ENDCHAR
STARTCHAR gravecmb.cap
ENCODING -1
SWIDTH 0 0
DWIDTH 0 0
BBX 4 3 -2 13
BITMAP
C0
60
10
ENDCHAR
STARTCHAR acutecmb.cap
ENCODING -1
SWIDTH 0 0
DWIDTH 0 0
BBX 4 3 -2 13
BITMAP
30
70
80
ENDCHAR
STARTCHAR circumflexcmb.cap
ENCODING -1
SWIDTH 0 0
DWIDTH 0 0
BBX 6 4 -3 12
BITMAP
30
78
CC
84
ENDCHAR
STARTCHAR tildecmb.cap
ENCODING -1
SWIDTH 0 0
DWIDTH 0 0
BBX 6 2 -3 13
BITMAP
F4
9C
ENDCHAR
STARTCHAR macroncmb.cap
ENCODING -1
SWIDTH 0 0
DWIDTH 0 0
BBX 6 1 -3 13
BITMAP
FC
ENDCHAR
STARTCHAR brevecmb.cap
ENCODING -1
SWIDTH 0 0
DWIDTH 0 0
BBX 6 2 -3 13
BITMAP
CC
78
ENDCHAR
STARTCHAR dotaccentcmb.cap
ENCODING -1
SWIDTH 0 0
DWIDTH 0 0
BBX 2 3 -1 13
BITMAP
C0
C0
C0
ENDCHAR
STARTCHAR dieresiscmb.cap
ENCODING -1
SWIDTH 0 0
DWIDTH 0 0
BBX 6 2 -3 13
BITMAP
CC
CC
ENDCHAR
STARTCHAR ringcmb.cap
ENCODING -1
SWIDTH 0 0
DWIDTH 0 0
BBX 4 4 -2 13
BITMAP
60
90
90
60
ENDCHAR
STARTCHAR hungarumlautcmb.cap
ENCODING -1
SWIDTH 0 0
DWIDTH 0 0
BBX 6 4 -3 12
BITMAP
6C
68
58
90
ENDCHAR
STARTCHAR caroncmb.cap
ENCODING -1
SWIDTH 0 0
DWIDTH 0 0
BBX 6 3 -3 13
BITMAP
88
4C
30
ENDCHAR
ENDFONT
